<?xml version="1.0" encoding="UTF-8"?>
<!-- Generator: Adobe Illustrator 27.2.0, SVG Export Plug-In . SVG Version: 6.00 Build 0)  -->
<svg version="1.1" id="Layer_1" xmlns="http://www.w3.org/2000/svg" xmlns:xlink="http://www.w3.org/1999/xlink" x="0px" y="0px" viewBox="0 0 97.9 97.9" style="enable-background:new 0 0 97.9 97.9;" xml:space="preserve">
<style type="text/css">
	.st0{fill:#EAEBE8;}
	.st1{fill:#742021;}
</style>
<rect class="st0" width="97.9" height="97.9"/>
<path class="st1" d="M48.6,62.1c0,0.7,0.6,1.2,1.3,1.2c0.5,0,0.9-0.3,1.1-0.7c0.5-0.9,0.2-2-0.7-2.5c-0.1,0-0.1-0.1-0.2-0.1  c-1.2-0.4-3-0.1-3.4,1.3s0.2,4.6,2.6,5"/>
<path class="st1" d="M50.3,66c0.7-0.1,1.3-0.8,1.2-1.5c-0.1-0.7-0.7-1.2-1.3-1.2c-0.9,0-1.6,0.7-1.7,1.6c0,0.7,0.4,1.3,1,1.5  c2.6,1,6.5-2.2,8.5,0.2c0,0,0.8,0.9,0.8,0.9"/>
<path class="st1" d="M61.4,22.7L61.4,22.7c-4.5,4.1-6.6,11.2-6.6,11.2c-1,5.1,1.9,4.5,1.9,4.5c2.5-0.3-0.1-4.8-0.1-4.8  c-0.2-0.4-0.2-0.8,0-1.2h0.8c0.5-0.1,0.1-3,0.4-3c0.2,0,0.4,0,0.5-0.1l0.5-1.2c0.4-0.5,0.7-0.2,0.7-0.2c0.2,8.6-1.2,10.4-1.2,10.4  c-2.4,3.3-4.1-0.1-4.1-0.1C52.1,31.6,59.4,24.4,61.4,22.7L61.4,22.7l0.4-0.3c0.1-1.1,0.2-1.7,0.2-1.7S43.8,30.1,56,57.4  c0,0-1.1,0.5,1.1,4.5c0,0,3.5,10,0.7,18.3c0,0-2.6,1.8-2.4,2.6l1.9,0.8c4.3-3.9,4.4-13.7,4.2-19l-0.3-0.5c0-0.1-0.1-0.2-0.1-0.3  c-1.8-3.5-7.9-16.2-6.2-20.2c0-0.1,1-3.2,3-3.1c0,0,2.3,0.2,1.8,3.7c0,0-1,7.8-0.9,9.3c-0.2-0.6-0.4-1.2-0.5-1.9  c0,0-0.9-0.9-0.5-1.7c0,0-0.8-0.6-0.5-1.4c-0.2-0.4-0.2-0.9,0-1.3c0,0-0.7-1.2,1-1.9c0,0,1.2-3.8-0.3-3.8c0,0-1.6-0.1-2.5,2.6  c0,0-1.7,2,5.7,19.6c0.2,0.5,0.4,0.8,0.4,0.9c-0.1-2.1-0.3-3.4-0.3-3.4c-1.7-13.9,0-33.2,0.6-38.9C61.7,22.4,61.5,22.5,61.4,22.7z"/>
<path class="st1" d="M61.8,22.3L61.8,22.3L61.8,22.3z"/>
<path class="st1" d="M61.5,64.6L61.5,64.6L61.5,64.6z"/>
<path class="st1" d="M57.2,83.2c-2.3,4.4-5.6,8.4-9.9,10.7c-3.1,1.7-9.5,1-10.9-2.6C35.5,89,36,85.6,37.9,84c2.4-2,4.3,1.7,7,0.6  c-1.4,0.4-0.5,2-1,3.1s-1.9,1.5-2.2,0.1c0,0.7,0.2,1.8-0.4,2.3c-1.2,0.9-1.5-0.5-1.6-1.3c-0.1,1-1.7,1.7-2.2,0.6  c-0.1-0.1,0.4-3.8-0.3-1.8"/>
<path class="st1" d="M41.6,89.7c2.5,1.1,5.4,0.8,7.6-0.8c2.9-1.9,5.3-3.5,6.8-6.8"/>
<path class="st1" d="M46.7,61c-2.2-0.9,0.3-3.6,0-5.1c-0.2-1-0.9-1.2-1.5-1.9c-0.9-0.9-0.2-2.3,0.6-1.1"/>
<path class="st1" d="M45.9,52.9c0.3-2.3,3.9,0.2,3.8,2"/>
<path class="st1" d="M49.2,53.3c-0.2-2,2.4,0.1,2.8,0.8c0.5,0.9,0.9,2.9,0.3,3.8"/>
<path class="st1" d="M52.6,55.2c1-1.7,2,0.9,2.2,1.7c0.3,1.7,0,3.5-0.8,5.1"/>
<path class="st1" d="M54.8,59.1c0.4-0.5,1.1-0.6,1.7-0.3"/>
<path class="st1" d="M47.9,53.6c-1.3,1,0.6,2,1.1,2.8c0.5,1,0.4,2.2-0.2,3.1"/>
<path class="st1" d="M43.7,14.7c0.2-0.2,0.5-0.2,0.8-0.1c0.5,1.6-1.6,2.3-2.7,1.4c-1.2-1-0.3-2.4,1-2.4"/>
<path class="st1" d="M41.6,15.8c-1.6-0.1-0.9,2.3,0.1,2.7c2.7,1.1,1.9-2.5,0.9-1.2"/>
<path class="st1" d="M46.7,18.7c3.8,3.1,8.7,2,12.5,4.5"/>
<path class="st1" d="M50.1,14.6c1.6-1.2,2.7-3.1,2.9-5.1c-0.1-0.9-0.1-1.8,0-2.7c0.5-2,1.7,0.1,0.6,0.5"/>
<path class="st1" d="M57.7,5C56.7,5.6,57,6.9,57,7.8c-0.1,1.2-0.5,2.3-1.2,3.2c-1.6,1.9-4.2,1.8-5.6,3.7"/>
<path class="st1" d="M46.6,12.7c0-1,0.6-1.8,1.6-2"/>
<path class="st1" d="M56,6.6c-1,0.4-0.6,2-0.8,2.8c-0.2,1.1-1.2,1.7-2.1,2.1"/>
<path class="st1" d="M50.4,13.4c-0.2-0.9,1.2-0.7,0.8-1.6c-0.4-0.6-1.1-1.1-1.8-1.1"/>
<path class="st1" d="M42.3,13.7c0.5-0.7,0.1-1.8,0.3-2.6c0.2-0.9,1.3-1.3,2-1.8c0.8-0.6,1.7-0.9,2.7-0.9c1,0.2,1.9,1,2.2,2.1"/>
<path class="st1" d="M54.7,5.7c0.5,0.1,0.6-0.5,0.5-0.8c-0.2-0.4-0.7-0.6-1.1-0.4c0,0,0,0,0,0c-0.4,0.3-0.5,0.9-0.5,1.3"/>
<path class="st1" d="M57.6,4.8c0,0.5,0.6,0.3,0.8,0.1c0.3-0.5,0.2-1.1-0.3-1.4c-0.4-0.3-0.9-0.3-1.4-0.2c-0.2,0.1-0.3,0.4-0.3,0.6"/>
<path class="st1" d="M56,4.8c0.5,0.3,0.6-0.5,0.5-0.8c-0.2-0.4-0.5-0.6-0.9-0.5c-0.5,0-0.8,0.4-0.9,0.8"/>
<path class="st1" d="M49.1,15c0.5,0,2.1-0.1,2.2,0.7c0.1,0.8-1.8,1.1-2.3,1.3c-1,0.3-1.8,0.8-2.4,1.6c-0.2,0.5-0.8,0.7-1.3,0.5  c-0.2-0.1-0.4-0.2-0.5-0.4"/>
<path class="st1" d="M49.1,15c0.1-0.7,1.8-0.7,1.4-1.4"/>
<path class="st1" d="M42.9,19.5c-0.2,4.2,5.2,4.7,8.3,4.7c1.2,0,2.5-0.2,3.8-0.3c0.9,0,2.2-0.1,3,0.5"/>
<path class="st1" d="M53,67.4c-1-1.2,1.4-1.6,2-0.4s0.3,3.5,0.3,4.9c0,1.9,0.5,3.7,1.3,5.4c0.7,1.1,1.2,2.4,1.3,3.7"/>
<path class="st1" d="M42.7,93c7,0.8,11-4.7,14-10"/>
<path class="st1" d="M45.2,53.9c-1.4-0.5-2,0.9-0.8,1.7c0.7,0.5,2,0.5,1.8,1.8c-0.3,0.9-1,1.4-0.9,2.5c0,0.7,0.5,1.8,1.3,1.7"/>
<path class="st1" d="M46.8,12.3c0.1-0.7,1.8,0.2,1.4-1"/>
<path class="st1" d="M47.7,9.6c-0.9-0.2-1.9,0.4-2.2,1.3"/>
<path class="st1" d="M54,69.6c-0.6-0.8,1.5-1.4,1.4-0.2c-0.1,0.5-0.7,1-1,1.5c-0.5,0.6-0.8,1.3-0.9,2.1c-0.2,1.9,0.6,3.8,2.1,5  c0.8,0.8,1.5,1.7,2,2.7"/>
<path class="st1" d="M56.9,6.7C57.5,6,58.3,6.1,58.5,7c0.1,0.8-0.9,1.6-1,0.7"/>
<path class="st1" d="M57.8,7.4c-0.8,0.2-0.5,1.8-0.5,2.5c0.1,1-0.3,2-1,2.6c-1.7,1.3-4.1,0.3-5.7,1.7"/>
</svg>