<?xml version="1.0" encoding="UTF-8" standalone="no"?>
<svg
   id="Layer_1"
   data-name="Layer 1"
   viewBox="0 0 400.00001 400.00001"
   version="1.1"
   sodipodi:docname="LOGO-IEM_canvas.svg"
   inkscape:export-filename="LOGO-IEM.png"
   inkscape:export-xdpi="250.02"
   inkscape:export-ydpi="250.02"
   width="400"
   height="400"
   inkscape:version="1.2.2 (b0a8486, 2022-12-01)"
   xmlns:inkscape="http://www.inkscape.org/namespaces/inkscape"
   xmlns:sodipodi="http://sodipodi.sourceforge.net/DTD/sodipodi-0.dtd"
   xmlns="http://www.w3.org/2000/svg"
   xmlns:svg="http://www.w3.org/2000/svg">
  <defs
     id="defs619" />
  <sodipodi:namedview
     id="namedview617"
     pagecolor="#ffffff"
     bordercolor="#666666"
     borderopacity="1.0"
     inkscape:showpageshadow="2"
     inkscape:pageopacity="0.0"
     inkscape:pagecheckerboard="0"
     inkscape:deskcolor="#d1d1d1"
     showgrid="false"
     inkscape:zoom="1.5877094"
     inkscape:cx="51.016893"
     inkscape:cy="202.17806"
     inkscape:window-width="1920"
     inkscape:window-height="1043"
     inkscape:window-x="1920"
     inkscape:window-y="0"
     inkscape:window-maximized="1"
     inkscape:current-layer="Layer_1" />
  <path
     d="m 97.68,253.63 a 4.91,4.91 0 0 0 3.83,4.54 4.74,4.74 0 0 0 5.11,-2.06 c 1.2,-2.05 1.2,-4.47 1.12,-6.77 a 6.84,6.84 0 0 0 -3.57,-6.12 c -4.46,-2.11 -11.46,-1 -13.68,3.8 a 13.15,13.15 0 0 0 -0.87,5.49 26.76,26.76 0 0 0 0.59,6.25 c 1.28,5.3 4.68,10.22 10.28,11.38 -0.14,0 0.17,-2.34 0,-2.37 -4.32,-0.9 -7.44,-4.08 -9.16,-8 A 20.63,20.63 0 0 1 89.77,254 c -0.06,-0.52 -0.05,-1 -0.12,-1.56 -0.09,-0.72 -0.09,1.73 0,0.78 0,-0.27 0,-0.55 0.06,-0.82 a 10.38,10.38 0 0 1 0.59,-2.52 c 1.73,-4.48 7.09,-5.76 11.4,-5 a 6.76,6.76 0 0 1 5.3,3.51 7.55,7.55 0 0 1 0.6,1.73 5,5 0 0 0 0.13,0.77 c 0.23,0.61 0.22,-2.1 0,-0.32 a 8.18,8.18 0 0 1 -1.17,3.36 4.8,4.8 0 0 1 -5,1.87 4.92,4.92 0 0 1 -3.83,-4.55 c 0.08,0.78 -0.07,1.59 0,2.38 z"
     style="fill:#821917"
     id="path458" />
  <path
     d="M 104.68,268.92 A 5.56,5.56 0 0 0 109.2,264 c 0.21,-2 0.26,-4.52 -1,-6.22 -1.58,-2.08 -4.57,-2.33 -6.85,-1.35 A 6.66,6.66 0 0 0 97.44,262 c -0.17,2.15 -0.22,4.63 1.13,6.45 1.68,2.27 4.77,2.83 7.43,2.82 6.35,0 12.28,-2.92 18.56,-3.47 3.15,-0.28 6.39,0.16 8.86,2.28 a 20.81,20.81 0 0 1 2.24,2.46 c 0.48,0.56 1,1.11 1.44,1.66 0.22,0.24 0.52,0.71 0.84,0.84 -0.26,-0.1 0.3,-2.25 0,-2.37 -0.61,-0.25 -1.22,-1.27 -1.63,-1.75 L 134.67,269 a 10,10 0 0 0 -6.21,-3.5 c -5.53,-0.84 -11.19,1.49 -16.52,2.64 -4.29,0.92 -11.39,2 -13.86,-2.84 a 6.09,6.09 0 0 1 -0.53,-1.5 2.78,2.78 0 0 0 -0.1,-0.68 c 0.11,0.1 -0.21,2.28 0,1 0,-0.15 0,-0.3 0.06,-0.45 a 6.94,6.94 0 0 1 1.29,-2.94 6.57,6.57 0 0 1 6.2,-2.41 4.89,4.89 0 0 1 3,1.68 5.24,5.24 0 0 1 0.84,1.47 4.44,4.44 0 0 1 0.21,0.71 c 0.09,0.4 0.14,1.75 0.12,0.19 -0.02,-1.56 0,-0.39 -0.13,0 a 6.29,6.29 0 0 1 -0.22,0.74 5.41,5.41 0 0 1 -0.87,1.53 5.74,5.74 0 0 1 -3.31,1.92 c -0.18,0 0.14,2.34 0,2.37 z"
     style="fill:#821917"
     id="path460" />
  <path
     d="m 148.16,97.67 -0.09,0.08 C 130.47,113.9 122,142 122,142 c -3.8,20.19 7.47,17.79 7.47,17.79 9.94,-1.35 -0.52,-18.82 -0.52,-18.82 -1.44,-2.22 0.21,-4.59 0.21,-4.59 l 3.15,-0.12 c 1.8,-0.3 0.52,-11.88 1.42,-11.78 a 4.58,4.58 0 0 0 2,-0.43 l 1.9,-4.89 c 1.55,-2 2.71,-0.87 2.71,-0.87 0.9,33.71 -4.56,40.71 -4.56,40.71 -9.41,13 -16.17,-0.25 -16.17,-0.25 -8,-25.8 20.89,-54.13 28.46,-61 l 0.09,-0.08 c 0.84,-0.76 1.4,-1.24 1.59,-1.4 0.44,-4.22 0.72,-6.57 0.72,-6.57 0,0 -71.47,36.96 -23.29,144.16 0,0 -4.41,2 4.3,17.65 0,0 13.88,39.43 2.56,72.08 0,0 -10.26,7.21 -9.44,10.38 l 7.39,3 c 16.93,-15.32 17.45,-53.86 16.38,-74.44 l -1.17,-2.07 -0.56,-1.34 c -6.85,-13.66 -30.85,-63.53 -24.47,-79.34 0.12,-0.41 4.1,-12.62 11.76,-12.17 0,0 9.18,0.77 7,14.32 0,0 -3.9,30.65 -3.65,36.66 a 47.32,47.32 0 0 1 -2.15,-7.4 c 0,0 -3.44,-3.39 -2.06,-6.77 0,0 -3,-2.47 -2,-5.39 a 6.64,6.64 0 0 1 0,-5.09 c 0,0 -2.84,-4.77 4,-7.54 0,0 4.69,-14.79 -1.23,-14.79 0,0 -6.46,-0.36 -9.65,10.32 0,0 -6.68,7.72 22.36,77.19 1,1.9 1.57,3.09 1.73,3.4 -0.42,-8.11 -1.08,-13.44 -1.08,-13.44 -6.75,-54.74 0.13,-130.3 2.46,-152.78 -0.44,0.43 -0.98,0.89 -1.5,1.37 z"
     style="fill:#821917"
     id="path462" />
  <path
     d="m 149.84,96.2 -0.09,0.07 v 0 z"
     style="fill:#821917"
     id="path464" />
  <path
     d="m 148.42,262.58 v -0.09 0 z"
     style="fill:#821917"
     id="path466" />
  <path
     d="m 131.58,334.41 c -6.15,11.84 -14.07,22.91 -24.14,31.72 a 68.5,68.5 0 0 1 -15.74,10.71 34.05,34.05 0 0 1 -13.4,2.84 c -9.07,0.26 -20.11,-2 -26,-9.51 a 18.31,18.31 0 0 1 -3,-6.1 25.39,25.39 0 0 1 -0.87,-4.14 c -0.1,-0.77 -0.14,-1.53 -0.2,-2.3 -0.06,-0.77 0,0.21 0,-0.44 0,-0.65 0.06,-1 0.11,-1.49 0.51,-5.43 2.48,-11.06 6.48,-14.9 a 10.84,10.84 0 0 1 6.38,-3.32 12.46,12.46 0 0 1 6,1.28 c 4,1.76 8,4.59 12.59,4.37 a 10.75,10.75 0 0 0 3.49,-0.8 c 0.26,-0.1 -0.23,-2.3 0,-2.37 -2.37,0.72 -3.26,2.5 -3.38,4.86 -0.06,1.11 0,2.22 0,3.33 0,0.25 0,0.49 0,0.74 0,0.25 0,0.37 0,0.56 0,-0.56 0,-0.68 0,-0.38 -0.13,0.64 -0.1,1.3 -0.26,1.94 a 6.63,6.63 0 0 1 -4.44,4.48 c -2.43,0.66 -4,-1 -4.53,-3.21 a 9.19,9.19 0 0 1 0,2 c 0,0.92 0.07,1.85 0.12,2.77 v 0.33 c 0,0.54 0,0.45 0,-0.28 0,0 -0.07,0.88 -0.08,0.94 a 6.07,6.07 0 0 1 -0.5,1.77 c -0.73,1.5 -3,3 -4.69,2.27 -1.55,-0.69 -2.06,-2.83 -2.34,-4.33 -0.08,-0.44 -0.12,-0.87 -0.19,-1.31 -0.11,-0.78 0,-0.23 -0.18,0.26 a 5.11,5.11 0 0 1 -1.4,2.25 5.39,5.39 0 0 1 -4.73,1.53 3.35,3.35 0 0 1 -2,-1.33 c -0.16,-0.24 -0.25,-0.55 -0.42,-0.78 -0.42,-0.59 -0.08,2.69 0,1.5 0.15,-2.48 0.34,-5 0.35,-7.45 0,-0.49 0.29,-2.8 -0.21,-3.23 -0.5,-0.43 -1.26,1.86 -1.4,2.16 -0.25,0.71 0.26,1.69 0,2.38 0.1,-0.27 0.76,-2.52 1.32,-2.2 0.19,0.11 0.17,0.62 0.2,0.8 0.18,1.24 0.06,-1 0,-0.31 0,0.38 0,0.76 -0.05,1.14 -0.07,1.33 -0.18,2.66 -0.25,4 a 14.68,14.68 0 0 0 0,3.44 3.28,3.28 0 0 0 3.12,2.4 5.72,5.72 0 0 0 4.62,-2.3 4.43,4.43 0 0 0 0.68,-1.22 3.28,3.28 0 0 0 0.18,-0.61 c 0,-0.18 0,-0.81 0.1,-0.25 0.21,0.95 0.24,1.92 0.52,2.86 0.43,1.48 1.29,3.29 3.08,3.22 2.65,-0.1 4,-2.6 4.21,-4.93 0.21,-2.33 -0.11,-4.75 -0.13,-7.12 v 2 c 0.55,2.22 2.11,3.88 4.53,3.21 a 6.61,6.61 0 0 0 4.44,-4.48 13.2,13.2 0 0 0 0.3,-3 v -1.71 a 6.55,6.55 0 0 1 0,-1.82 v 0.53 c 0,-0.25 0,-0.49 0,-0.74 a 6.15,6.15 0 0 1 0.1,-0.75 5.08,5.08 0 0 1 0.53,-1.58 4.39,4.39 0 0 1 2.71,-2 V 340 c -4.77,1.89 -9.18,-0.18 -13.45,-2.32 -4.27,-2.14 -8.53,-3.83 -12.79,-1 -4.81,3.17 -7.43,8.82 -8.4,14.33 a 34.49,34.49 0 0 0 0.73,15.81 c 3.11,9.83 13.38,14 22.88,15.06 a 41.35,41.35 0 0 0 15.07,-1 c 5.49,-1.47 10.45,-4.74 15,-8.09 11.16,-8.26 20,-19.35 26.87,-31.36 0.85,-1.5 1.68,-3 2.48,-4.56 0.33,-0.63 -0.32,-1.76 0,-2.38 z"
     style="fill:#821917"
     id="path468" />
  <path
     d="m 70.28,362.05 c 9.26,4.12 19.58,3 28.23,-2.06 a 128.73,128.73 0 0 0 11,-7.37 64,64 0 0 0 9.39,-8.24 46.44,46.44 0 0 0 8,-12.21 c 0.3,-0.66 -0.3,-1.73 0,-2.38 a 51.48,51.48 0 0 1 -16.13,19.48 c -3.43,2.61 -7,5 -10.67,7.32 A 34.86,34.86 0 0 1 86.51,362 29.2,29.2 0 0 1 70.28,359.72 c 0.28,0.13 -0.31,2.24 0,2.38 z"
     style="fill:#821917"
     id="path470" />
  <path
     d="m 90.48,247 a 6.39,6.39 0 0 1 -2.73,-2 4.53,4.53 0 0 1 -0.63,-1.31 c -0.07,-0.22 -0.09,-0.44 -0.15,-0.66 0,0 0,-0.34 0,-0.34 0,0 -0.16,2.15 0,0.6 a 29.29,29.29 0 0 1 2.03,-6.87 19.69,19.69 0 0 0 1.66,-6.24 c 0.07,-2.32 0.07,-4.67 -1.49,-6.57 a 34.57,34.57 0 0 0 -3.43,-3.08 9.61,9.61 0 0 1 -1.69,-1.91 6,6 0 0 1 -0.59,-1.22 c -0.21,-0.63 -0.24,-2 -0.26,0.27 V 218 c 0.07,-0.84 0.35,-1.94 1.29,-2.19 1.17,-0.33 2.15,0.94 2.73,1.76 -0.37,-0.52 0.37,-1.84 0,-2.38 -0.71,-1 -2.23,-2.65 -3.43,-1.3 -0.84,1 -0.61,2.64 -0.6,3.8 0,4 3.45,5.41 5.8,8 a 6.61,6.61 0 0 1 1.26,2.1 c 0.16,0.45 0.16,1 0.35,1.43 0.35,0.76 -0.1,-1 0,-0.87 a 2.43,2.43 0 0 1 -0.09,0.69 22.8,22.8 0 0 1 -1.28,4.27 c -1,2.72 -2.3,5.5 -2.39,8.44 a 13.13,13.13 0 0 0 0.24,4.2 5.65,5.65 0 0 0 3.36,3.4 c -0.28,-0.13 0.31,-2.24 0,-2.38 z"
     style="fill:#821917"
     id="path472" />
  <path
     d="m 87.23,217.59 a 4,4 0 0 1 1.91,-3.21 4.84,4.84 0 0 1 3.59,0 15.26,15.26 0 0 1 7.49,5.74 11.37,11.37 0 0 1 1.29,2.31 8.77,8.77 0 0 1 0.35,1.1 6,6 0 0 1 0.12,0.61 c 0,0.08 0,0.16 0,0.24 0.15,1.07 0.1,-2.55 0,-1.44 -0.06,0.79 0.06,1.59 0,2.38 a 11.71,11.71 0 0 0 -0.55,-5.39 13.47,13.47 0 0 0 -3,-4.29 16.16,16.16 0 0 0 -4.35,-3.11 6.77,6.77 0 0 0 -4.18,-0.76 c -1.67,0.38 -2.43,1.89 -2.66,3.47 -0.12,0.78 0.11,1.61 0,2.38 z"
     style="fill:#821917"
     id="path474" />
  <path
     d="m 100.17,216.79 c -0.07,-0.93 -0.05,1.45 0,1.29 0.05,-0.16 0,-0.31 0,-0.46 a 3.63,3.63 0 0 1 0.13,-0.57 2.17,2.17 0 0 1 0.47,-0.82 2,2 0 0 1 1.65,-0.48 10,10 0 0 1 4.58,2.25 18.7,18.7 0 0 1 3.75,3.52 15.2,15.2 0 0 1 2.42,6 22,22 0 0 1 0.4,2.27 c 0.05,0.46 0.08,0.91 0.12,1.36 0.04,0.45 -0.25,0.49 0,-0.79 a 7,7 0 0 0 0,0.8 8.57,8.57 0 0 1 -1.2,3.81 c -0.14,0.21 0,0.93 0,1.18 0,0.25 0.15,1 0,1.19 1.56,-2.43 1.39,-5.72 1.24,-8.48 a 20.4,20.4 0 0 0 -2.38,-8.86 14.75,14.75 0 0 0 -4,-4.11 C 106,214.78 104,213.28 102,213.36 a 1.84,1.84 0 0 0 -1.75,1.44 13.36,13.36 0 0 0 -0.12,4.28 c 0,-0.56 0.05,-1.57 0,-2.29 z"
     style="fill:#821917"
     id="path476" />
  <path
     d="m 113.41,226.52 c 1.14,-1.77 2.82,-2.92 4.65,-1.33 1.66,1.44 2.63,3.76 3.33,5.78 2.22,6.44 0.44,13.82 -2.44,20 -0.31,0.66 0.3,1.74 0,2.38 a 35.38,35.38 0 0 0 3.35,-12.59 38.15,38.15 0 0 0 -0.36,-10.24 16.86,16.86 0 0 0 -3.1,-6.85 3.83,3.83 0 0 0 -2.48,-1.67 c -1.36,-0.09 -2.3,1.13 -3,2.14 -0.37,0.57 0.35,1.83 0,2.38 z"
     style="fill:#821917"
     id="path478" />
  <path
     d="m 122.34,241.92 c 1.64,-1.62 4.38,-2.59 6.47,-1.23 a 3.44,3.44 0 0 1 0,-0.35 v -1.68 a 1.33,1.33 0 0 0 0,-0.35 c -2.09,-1.35 -4.83,-0.38 -6.47,1.23 a 1.42,1.42 0 0 0 0,0.35 v 1.68 c 0,0.06 0,0.32 0,0.35 z"
     style="fill:#821917"
     id="path480" />
  <path
     d="m 94.93,218 a 4.1,4.1 0 0 0 -1.78,2.67 15.63,15.63 0 0 0 0,2.65 c 0.12,2 1.7,3.5 3,4.82 0.77,0.76 1.58,1.48 2.29,2.3 a 7.5,7.5 0 0 1 1.56,3.08 14.15,14.15 0 0 1 0.45,2.15 c 0,0.35 0.07,0.7 0.09,1 v -0.53 c 0.1,0.1 -0.11,0.87 -0.14,1.06 a 10.51,10.51 0 0 1 -1.74,4.15 c -0.38,0.54 0.37,1.86 0,2.38 a 12.47,12.47 0 0 0 2,-7.48 c 0,-2.49 -0.09,-5.54 -1.61,-7.63 -1.27,-1.74 -3.1,-3 -4.45,-4.68 a 7.78,7.78 0 0 1 -0.9,-1.33 c -0.2,-0.39 -0.24,-0.9 -0.44,-1.25 0.84,1.47 -0.3,2 0.08,1.1 a 5.17,5.17 0 0 1 0.28,-0.64 5.55,5.55 0 0 1 1.4,-1.5 c 0.39,-0.32 -0.38,-2.07 0,-2.37 z"
     style="fill:#821917"
     id="path482" />
  <path
     d="m 78.6,67.58 a 4.47,4.47 0 0 1 2,-0.72 1.83,1.83 0 0 1 1,0.09 c 0.18,0.11 0.23,0.52 0.28,0.73 0.05,0.21 0.08,0.52 0.11,0.78 0.08,0.57 0,-1.91 0,-1.67 0,0.08 0,0.15 0,0.22 0,0.07 0,0.24 -0.05,0.36 a 4.68,4.68 0 0 1 -0.45,1.25 6.18,6.18 0 0 1 -4.17,2.92 6.77,6.77 0 0 1 -7.73,-3.38 4.73,4.73 0 0 1 -0.52,-1.55 c -0.13,-1 -0.05,1.64 0,1.52 0.05,-0.12 0,-0.28 0,-0.42 a 4.13,4.13 0 0 1 0.19,-0.77 c 0.84,-2.47 3.47,-3.81 5.94,-4 0.07,0 0,-2.37 0,-2.37 -2.47,0.17 -5.1,1.5 -5.94,4 a 5.43,5.43 0 0 0 -0.25,1.7 18.31,18.31 0 0 0 0.05,2.67 5.83,5.83 0 0 0 2,3.47 A 6.85,6.85 0 0 0 77,74 6.18,6.18 0 0 0 81.71,70.65 4.61,4.61 0 0 0 82,69.08 a 24.37,24.37 0 0 0 0,-3 5.25,5.25 0 0 0 -0.14,-0.87 2,2 0 0 0 -0.15,-0.54 C 81.6,64.49 81.46,64.48 81.24,64.45 a 4.1,4.1 0 0 0 -2.65,0.72 4.7,4.7 0 0 0 0,1.19 v 0.84 a 2,2 0 0 1 0,0.34 z"
     style="fill:#821917"
     id="path484" />
  <path
     d="M 70.28,69.52 A 3.43,3.43 0 0 0 67,71 a 3.76,3.76 0 0 0 -0.44,1.61 20.49,20.49 0 0 0 0,3.23 9,9 0 0 0 1.3,3.86 6.42,6.42 0 0 0 2.57,2.62 c 1.89,0.92 5,1.64 6.55,-0.31 a 3.86,3.86 0 0 0 0.75,-2.23 25.16,25.16 0 0 0 0,-2.88 4.83,4.83 0 0 0 -0.25,-1.14 2.21,2.21 0 0 0 -1.38,-1.5 c -0.86,-0.21 -1.61,0.52 -2.09,1.14 a 1.41,1.41 0 0 0 0,0.35 v 1.65 a 1.4,1.4 0 0 1 0,0.35 2.54,2.54 0 0 1 1.76,-1.18 1.65,1.65 0 0 1 1.34,0.8 4,4 0 0 1 0.62,1.87 c 0.11,1.06 0.13,-2.76 0,-1.48 a 3.82,3.82 0 0 1 -0.11,0.57 3.42,3.42 0 0 1 -0.42,1 C 76,81.14 73.67,81 71.88,80.46 a 6.24,6.24 0 0 1 -3.13,-1.9 9.25,9.25 0 0 1 -2.22,-5.35 11.18,11.18 0 0 0 0,1.77 2.83,2.83 0 0 1 0,-0.29 4,4 0 0 1 0.09,-0.48 2.86,2.86 0 0 1 0.3,-0.8 3.4,3.4 0 0 1 3.33,-1.51 c 0,0 0,-2.38 0,-2.38 z"
     style="fill:#821917"
     id="path486" />
  <path
     d="m 90.37,83.2 c 5.49,4.52 12.06,7 18.92,8.67 6.56,1.55 13.29,2.41 19.75,4.4 a 42.28,42.28 0 0 1 10.53,4.79 c -0.34,-0.22 0.38,-2.13 0,-2.37 -11.7,-7.55 -26.18,-6.8 -38.83,-11.8 A 38.73,38.73 0 0 1 90.37,80.82 c 0.38,0.31 -0.4,2 0,2.38 z"
     style="fill:#821917"
     id="path488" />
  <path
     d="m 103.86,67 c 6,-4.12 9.55,-11.09 10.81,-18.16 a 35.16,35.16 0 0 0 0.1,-9.11 13.85,13.85 0 0 0 -0.14,-1.84 c -0.15,-0.69 0.06,0.54 0,0.48 a 4.74,4.74 0 0 1 0.1,-1.1 9.93,9.93 0 0 1 0.74,-2.51 c 0.34,-0.78 1,-2 2,-1.84 1,0.16 1.22,1.14 1.53,1.88 0.36,0.95 0.4,-1.85 0,-0.9 a 5.74,5.74 0 0 1 -0.26,0.69 2.55,2.55 0 0 1 -1.3,1.1 c -0.3,0.13 0.27,2.26 0,2.38 a 2.63,2.63 0 0 0 1.64,-2.3 12.28,12.28 0 0 0 -0.08,-3.26 c -0.15,-0.75 -0.61,-1.77 -1.46,-1.94 -1.11,-0.22 -1.8,1.17 -2.14,2 -1.28,3.06 -0.85,6.77 -0.57,10 0,0.68 0.09,1.36 0.15,2 0.1,1.18 0,-0.3 0,-0.3 0,0 -0.11,1 -0.12,1.09 -0.14,1 -0.33,2 -0.57,3 a 32.39,32.39 0 0 1 -2,5.82 24.65,24.65 0 0 1 -8.46,10.46 c -0.38,0.26 0.35,2.14 0,2.38 z"
     style="fill:#821917"
     id="path490" />
  <path
     d="m 133.43,27.22 c -2.69,1.91 -2.75,5.1 -2.75,8.1 0,0.67 0,1.34 0,2 0,0.26 0,0.54 0,0.8 0,-0.16 0.12,-0.52 0,-0.24 a 10.28,10.28 0 0 0 -0.25,2.12 29.15,29.15 0 0 1 -1.28,5.37 18.26,18.26 0 0 1 -6.7,8.87 53.81,53.81 0 0 1 -9.16,4.61 c -3.57,1.59 -7,3.46 -9.43,6.61 -0.39,0.51 0.37,1.89 0,2.38 4.3,-5.6 11.49,-6.87 17.27,-10.36 a 18.44,18.44 0 0 0 7.39,-8.19 25.59,25.59 0 0 0 2.2,-10 c 0,-3.43 -0.47,-7.35 2.71,-9.6 0.38,-0.27 -0.36,-2.12 0,-2.37 z"
     style="fill:#821917"
     id="path492" />
  <path
     d="m 90,57.51 c 0,-0.12 0,-0.24 0,-0.36 -0.1,-1 -0.09,2.27 0,1.43 q 0,-0.33 0.09,-0.66 a 6.43,6.43 0 0 1 0.38,-1.2 7.59,7.59 0 0 1 1.4,-2.15 9.44,9.44 0 0 1 4.35,-2.7 7.63,7.63 0 0 0 0,-1.18 9.56,9.56 0 0 1 0,-1.19 9.28,9.28 0 0 0 -5,3.53 6.71,6.71 0 0 0 -1.22,2.74 13.25,13.25 0 0 0 -0.08,2 13.62,13.62 0 0 0 0.08,2.11 7.89,7.89 0 0 1 0,-1.19 7.75,7.75 0 0 0 0,-1.18 z"
     style="fill:#821917"
     id="path494" />
  <path
     d="m 126.86,33.28 c -3.66,1.45 -2.75,6.74 -2.94,9.84 a 8.93,8.93 0 0 1 -2.55,5.88 18.28,18.28 0 0 1 -6,3.63 c -0.3,0.13 0.27,2.26 0,2.37 4.21,-1.78 8.17,-4.32 8.55,-9.3 0.24,-3.14 -0.77,-8.52 3,-10 0.28,-0.11 -0.26,-2.27 0,-2.37 z"
     style="fill:#821917"
     id="path496" />
  <path
     d="m 104.89,60 c 0,-0.08 0,-0.16 0,-0.24 0,-0.08 -0.09,2.08 0,1.63 0,-0.12 0,-0.24 0.09,-0.36 a 2.25,2.25 0 0 1 0.3,-0.6 3.46,3.46 0 0 1 0.94,-0.85 5.63,5.63 0 0 0 2,-1.52 3.27,3.27 0 0 0 0.23,-1.7 A 7.72,7.72 0 0 0 108.23,54 6.25,6.25 0 0 0 105.5,51 9.07,9.07 0 0 0 101,49.29 c 0,0 0,2.38 0,2.38 a 8.51,8.51 0 0 1 4,1.33 7.33,7.33 0 0 1 3.07,2.92 3.93,3.93 0 0 1 0.26,0.8 c 0.21,1 0.22,-2.46 0,-1.65 a 3.37,3.37 0 0 1 -0.09,0.34 2.05,2.05 0 0 1 -0.72,0.88 14,14 0 0 0 -2.13,1.53 2.32,2.32 0 0 0 -0.56,1.4 14.16,14.16 0 0 0 0,3.12 c -0.12,-0.77 0.11,-1.6 0,-2.38 z"
     style="fill:#821917"
     id="path498" />
  <path
     d="m 73,63.5 c 1.51,-2 1.21,-4.94 1.11,-7.32 0,-0.72 -0.09,-1.43 -0.13,-2.15 0,-0.17 0,-0.35 0,-0.53 0,0.26 -0.1,0.57 0.07,0.06 0.11,-0.34 0.15,-0.71 0.28,-1.06 a 7.49,7.49 0 0 1 2.55,-3.16 32,32 0 0 1 3.63,-2.28 c 1.44,-0.84 2.84,-1.74 4.31,-2.52 2.94,-1.56 6.35,-2.62 9.58,-1.27 3.23,1.35 6,4.09 6.65,7.53 -0.14,-0.77 0.14,-1.61 0,-2.38 a 10.56,10.56 0 0 0 -5.58,-7 c -3.11,-1.7 -6.46,-1.27 -9.58,0.21 a 62.11,62.11 0 0 0 -8.2,4.77 c -2.37,1.6 -3.71,3.51 -3.74,6.4 0,1.42 0,2.83 0.1,4.24 0,0.48 0.05,1 0.09,1.44 0.05,0.63 0,-0.7 0,-0.7 -0.13,0.22 -0.06,0.71 -0.11,1 a 5.38,5.38 0 0 1 -1,2.37 c -0.39,0.52 0.37,1.88 0,2.38 z"
     style="fill:#821917"
     id="path500" />
  <path
     d="m 121.94,32.08 c 1.14,0.26 1.81,-0.68 2,-1.69 a 4.41,4.41 0 0 0 0.09,-0.73 c 0,-0.79 0,-1.58 0,-2.37 a 2.84,2.84 0 0 0 -0.34,-1.49 3.43,3.43 0 0 0 -2.94,-1.41 3,3 0 0 0 -2.68,1.85 12,12 0 0 0 -0.58,5 c 0,0.09 0,1.19 0,1.19 0,0 0,-1.18 0,-1.19 0,1.14 0,0.24 0,-0.06 a 8.65,8.65 0 0 1 0.09,-0.89 6.22,6.22 0 0 1 0.44,-1.64 3,3 0 0 1 2.32,-1.82 3.74,3.74 0 0 1 2.79,0.8 2.35,2.35 0 0 1 0.87,1.13 2.5,2.5 0 0 1 0,0.29 0.53,0.53 0 0 1 0,0.13 v 0.08 c 0,0.39 0,0.09 0,-0.91 v -1 a 1,1 0 0 1 0,0.17 c 0,0 0,0.09 0,0.13 a 3.1,3.1 0 0 1 -0.08,0.42 c -0.23,1 -0.9,1.87 -2,1.61 0,0 0,1.1 0,1.19 a 7.77,7.77 0 0 0 0,1.19 z"
     style="fill:#821917"
     id="path502" />
  <path
     d="m 133.23,28.73 a 1.18,1.18 0 0 0 0.77,1.18 1.89,1.89 0 0 0 1.45,-0.16 c 1.2,-0.58 1.45,-2 1.47,-3.23 0,-1.78 0.16,-3.67 -1.22,-5 a 6.28,6.28 0 0 0 -3.9,-1.52 3.32,3.32 0 0 0 -2.24,0.5 3.45,3.45 0 0 0 -1.29,2.32 7.87,7.87 0 0 0 0,1.19 9.31,9.31 0 0 1 0,1.18 3.06,3.06 0 0 1 2.56,-2.78 6.94,6.94 0 0 1 3.87,0.79 4,4 0 0 1 2.09,2.89 4.6,4.6 0 0 1 0.06,0.52 c -0.21,-2.95 0.05,-2.4 0,-1.7 a 2.17,2.17 0 0 1 0,0.25 3.83,3.83 0 0 1 -0.27,1 2.36,2.36 0 0 1 -0.93,1.16 c -0.91,0.55 -2.3,0.48 -2.36,-0.83 0,-0.15 0,0.2 0,0.12 0,0.24 0,0.47 0,0.71 0,0.49 0,1 0,1.46 z"
     style="fill:#821917"
     id="path504" />
  <path
     d="m 127,28.89 a 1.44,1.44 0 0 0 1.24,0.18 1.37,1.37 0 0 0 0.63,-0.77 3.9,3.9 0 0 0 0.13,-1.3 21.34,21.34 0 0 0 0,-2.77 c -0.26,-2.41 -3.09,-3.56 -5.2,-2.68 a 4.36,4.36 0 0 0 -2.23,2.93 1.39,1.39 0 0 0 0,0.35 v 1.67 a 1.38,1.38 0 0 1 0,0.35 4.83,4.83 0 0 1 1.59,-2.56 3.94,3.94 0 0 1 3.09,-0.55 3.46,3.46 0 0 1 2.49,1.85 3.24,3.24 0 0 1 0.26,1.07 c 0.08,1 0.07,-2.54 0,-1.7 v 0.31 a 3,3 0 0 1 -0.14,0.59 1.36,1.36 0 0 1 -0.65,0.83 1.4,1.4 0 0 1 -1.21,-0.18 6.8,6.8 0 0 1 0,1.19 v 0.84 a 1.33,1.33 0 0 0 0,0.35 z"
     style="fill:#821917"
     id="path506" />
  <path
     d="m 99.74,68.54 c 2.09,0.08 8.36,-0.44 8.43,2.85 v -2.21 c -0.17,1.93 -3.08,2.82 -4.59,3.39 -2.26,0.82 -4.51,1.48 -6.72,2.44 -3,1.32 -5.48,2.85 -7.28,5.67 -1.8,2.82 -4.81,2.68 -6.87,0.24 0.38,0.45 -0.4,1.9 0,2.37 a 4.43,4.43 0 0 0 4.12,1.89 c 1.94,-0.38 2.6,-2.16 3.7,-3.54 2.16,-2.73 5.85,-4.25 9.06,-5.39 2.44,-0.87 5.18,-1.36 7.32,-2.9 a 2.62,2.62 0 0 0 1.27,-2.27 c 0,-1 0.22,-2.36 -0.45,-3.22 -1.63,-2.09 -5.66,-1.6 -8,-1.7 0,0 -0.05,2.37 0,2.38 z"
     style="fill:#821917"
     id="path508" />
  <path
     d="m 99.74,68.54 c 0.16,-1.26 1.59,-1.92 2.6,-2.41 0.6,-0.29 1.21,-0.56 1.78,-0.89 a 2.55,2.55 0 0 0 1.11,-1 1.24,1.24 0 0 0 0.09,-0.38 20.6,20.6 0 0 0 0,-2.08 2,2 0 0 0 -0.24,-1.07 1.92,1.92 0 0 1 0,0.35 v 1.68 a 1,1 0 0 0 0,0.35 1.77,1.77 0 0 1 0.16,0.34 0.75,0.75 0 0 1 0,0.16 c 0,0 0,0 0,0.08 v 0 c 0,0.75 0,0 0,-2.17 a 1.33,1.33 0 0 1 -0.21,0.54 3.49,3.49 0 0 1 -1.17,0.91 22.36,22.36 0 0 0 -3.27,1.76 2.24,2.24 0 0 0 -0.93,1.43 9.45,9.45 0 0 0 0,1.19 v 0.84 c 0,0.11 0,0.24 0,0.35 z"
     style="fill:#821917"
     id="path510" />
  <path
     d="m 75.41,84.25 c -0.19,4 0,7.93 2.35,11.28 2.23,3.19 5.73,5.22 9.32,6.54 8.58,3.18 18.48,3.42 27.5,2.67 3.8,-0.31 7.61,-0.79 11.43,-0.83 3,0 6.26,0.25 8.65,2.28 -0.38,-0.32 0.4,-2 0,-2.38 -2,-1.71 -4.64,-2.18 -7.21,-2.27 a 69.91,69.91 0 0 0 -8.68,0.45 110.24,110.24 0 0 1 -16,0.55 c -7.42,-0.41 -15.94,-1.5 -22,-6.25 A 14.18,14.18 0 0 1 77,91.93 12.73,12.73 0 0 1 75.89,89.16 13.73,13.73 0 0 1 75.55,87.49 c 0,-0.23 -0.06,-0.45 -0.09,-0.68 -0.03,-0.23 0,-0.53 -0.05,-0.8 0,0.93 0,1.1 0,0.53 0,-0.72 0,-1.73 0,-2.29 z"
     style="fill:#821917"
     id="path512" />
  <path
     d="m 114.94,272.2 a 5.82,5.82 0 0 1 -0.69,-1.08 c -0.08,-0.18 -0.12,-0.39 -0.21,-0.57 -0.32,-0.67 1.72,-0.8 0,1.52 0.39,-0.5 0.39,-0.95 1,-1.34 a 5.65,5.65 0 0 1 4,-0.42 c 4.36,0.95 5.29,5.5 5.51,9.37 0.25,4.37 -0.44,8.8 -0.36,13.19 a 46.15,46.15 0 0 0 3.42,16.52 c 2.54,6.22 6.59,11.83 7,18.73 0,-0.56 0,-1.57 0,-2.29 -0.43,-6.51 -4,-11.8 -6.54,-17.62 a 47.62,47.62 0 0 1 -2.93,-8.93 46.11,46.11 0 0 1 -0.75,-4.66 c -0.09,-0.86 -0.16,-1.72 -0.2,-2.59 0,-0.16 0,-1.9 0,-0.92 0,0.98 0,-0.65 0,-0.79 0.21,-4.72 0.71,-9.49 0.23,-14.22 -0.22,-2.15 -0.67,-4.75 -2.19,-6.41 a 6.47,6.47 0 0 0 -4.57,-1.92 c -1.37,0 -3.36,0.34 -3.7,1.93 a 6.05,6.05 0 0 0 0.94,4.87 c -0.37,-0.48 0.4,-1.87 0,-2.37 z"
     style="fill:#821917"
     id="path514" />
  <path
     d="m 74.6,375 a 42.19,42.19 0 0 0 27.3,-6.16 c 7.85,-4.94 14.08,-12.09 19.3,-19.68 a 152.2,152.2 0 0 0 8.22,-13.58 c 0.34,-0.62 -0.33,-1.77 0,-2.38 -8.6,15.8 -20.12,32.93 -38.42,38.15 a 43,43 0 0 1 -16.44,1.26 c 0.06,0 -0.11,2.36 0,2.37 z"
     style="fill:#821917"
     id="path516" />
  <path
     d="m 84.34,219.32 c -1.46,-0.5 -3.22,-0.74 -4.55,0.24 a 3.56,3.56 0 0 0 -1.25,3.14 6.93,6.93 0 0 0 0.66,3.87 7.69,7.69 0 0 0 3.88,2.91 13.28,13.28 0 0 1 3.8,2 3.77,3.77 0 0 1 1.12,1.44 4.27,4.27 0 0 0 0.13,0.48 c 0.52,0.88 -0.26,-1.12 0.06,-1 0.32,0.12 -0.38,1.45 -0.44,1.61 -0.68,1.68 -1.8,3.14 -2.5,4.81 a 11.81,11.81 0 0 0 -0.71,4.82 c 0,3.11 1.24,8.52 5.26,8.43 0,0 0,-2.37 0,-2.37 -3.19,0.07 -4.87,-3.85 -5.18,-6.53 -0.15,-1.22 0.22,0.11 0,0.25 0,0 0.12,-0.69 0.12,-0.67 a 8.21,8.21 0 0 1 0.33,-1.1 16.12,16.12 0 0 1 1.11,-2.29 12.51,12.51 0 0 0 2,-4.58 c 0.25,-2.42 0.23,-4.9 -2,-6.3 -2.23,-1.4 -5.47,-1.78 -7,-4.42 a 6.05,6.05 0 0 1 -0.41,-1 c 0,0 -0.13,-0.47 -0.12,-0.47 0.28,0 -0.38,1.89 0.06,0.93 a 3.86,3.86 0 0 1 1,-1.52 c 1.32,-1.13 3.19,-0.9 4.72,-0.37 -0.23,-0.08 0.26,-2.29 0,-2.38 z"
     style="fill:#821917"
     id="path518" />
  <path
     d="m 98.75,268.72 c 0,0 0,-2.38 0,-2.38 0,0 0,2.38 0,2.38 z"
     style="fill:#821917"
     id="path520" />
  <path
     d="m 88.25,252.09 c 0,0 0,-2.38 0,-2.38 0,0 0,2.38 0,2.38 z"
     style="fill:#821917"
     id="path522" />
  <path
     d="m 90.94,58 c 0.24,-1.26 1.81,-1.25 2.81,-1.27 a 11.35,11.35 0 0 0 1.85,-0.11 1.44,1.44 0 0 0 1.15,-0.74 1.67,1.67 0 0 0 0.09,-0.4 22.64,22.64 0 0 0 0,-2.33 3.84,3.84 0 0 0 -0.26,-1.33 1.34,1.34 0 0 1 0,0.35 v 1.68 a 2,2 0 0 0 0,0.35 5.22,5.22 0 0 1 0.18,0.56 c 0,0.09 0,0.17 0.05,0.25 0.05,0.08 0,0.08 0,0.12 a 0.13,0.13 0 0 1 0,0.06 c 0,0.76 0.05,0.06 0,-2.08 a 1.12,1.12 0 0 1 -0.21,0.61 1.74,1.74 0 0 1 -1.21,0.55 21.74,21.74 0 0 0 -3.43,0.28 1.39,1.39 0 0 0 -1,1.07 5.91,5.91 0 0 0 0,1.19 c 0,0.28 0,0.56 0,0.84 a 2,2 0 0 1 0,0.35 z"
     style="fill:#821917"
     id="path524" />
  <path
     d="m 94.12,45.29 a 9.79,9.79 0 0 0 -5.31,1 8.24,8.24 0 0 0 -3.32,3.93 1.36,1.36 0 0 0 0,0.35 c 0,0.28 0,0.56 0,0.84 0,0.28 0,0.56 0,0.84 0,0.08 0,0.27 0,0.34 a 8.21,8.21 0 0 1 3.32,-3.92 9.79,9.79 0 0 1 5.31,-1 c 0,0 0.05,-2.38 0,-2.38 z"
     style="fill:#821917"
     id="path526" />
  <path
     d="m 119.17,281 c -0.16,-0.26 -0.21,-0.57 -0.36,-0.82 0.91,1.56 -0.4,2.28 0.2,1.21 a 2.86,2.86 0 0 1 1.21,-1.05 3.57,3.57 0 0 1 3.33,-0.06 2.41,2.41 0 0 1 0.94,1.37 c 0.23,0.55 -1,1.12 0,-1.26 -0.09,0.22 -0.09,0.5 -0.17,0.73 a 5.89,5.89 0 0 1 -0.92,1.59 c -1.48,2 -3.3,3.54 -4.56,5.69 -2.21,3.77 -2.3,8.31 -2,12.55 a 22,22 0 0 0 5.34,12.43 c 3.81,4.53 8.52,8.14 10.88,13.74 -0.28,-0.67 0.29,-1.7 0,-2.38 -2.23,-5.3 -6.55,-8.84 -10.28,-13 a 22.36,22.36 0 0 1 -6,-13.44 c 0,-0.25 0,-0.5 0,-0.74 0,1 0,-0.31 0,-0.43 a 15.06,15.06 0 0 1 0.36,-2.3 14.41,14.41 0 0 1 1.43,-3.69 c 1.27,-2.3 3.18,-3.94 4.74,-6 1.2,-1.59 1.21,-3.23 1.13,-5.14 a 2.27,2.27 0 0 0 -2.1,-2.4 3.56,3.56 0 0 0 -3.51,1.6 5.35,5.35 0 0 0 -0.17,2.22 3.33,3.33 0 0 0 0.4,2 c -0.35,-0.56 0.37,-1.81 0,-2.38 z"
     style="fill:#821917"
     id="path528" />
  <path
     d="m 130.46,35.45 a 5,5 0 0 1 3.05,-1.87 2.56,2.56 0 0 1 2.49,1.26 4.92,4.92 0 0 1 0.64,1.75 v 0.24 c 0,0.53 0,-0.83 0,-0.29 0,0.11 0,0.23 0,0.35 a 4.24,4.24 0 0 1 -0.25,0.86 4.06,4.06 0 0 1 -1.91,2.25 1.19,1.19 0 0 1 -1.1,0 1.84,1.84 0 0 1 -0.66,-1.37 c 0,0.3 0,0.63 0,0.94 a 1.91,1.91 0 0 0 0.59,1.32 1.06,1.06 0 0 0 1,0.07 4,4 0 0 0 2,-2.32 4.84,4.84 0 0 0 0.29,-1.73 6.31,6.31 0 0 0 -0.27,-2.11 2.93,2.93 0 0 0 -2.27,-2.15 c -1.45,-0.18 -2.76,0.84 -3.66,1.87 0,0.06 0,0.39 0,0.47 0,0.08 0.06,0.41 0,0.47 z"
     style="fill:#821917"
     id="path530" />
  <path
     d="m 134,36.67 c -2.3,0.54 -2.27,3.56 -2.28,5.44 0,1.32 0,2.64 0.08,4 0,0.58 0.08,1.17 0.11,1.76 0,0.15 0,1 0,0.39 0,-0.61 0,0 0,0.11 0,0.38 0,0.76 -0.08,1.14 a 10.07,10.07 0 0 1 -5,8 c -3.08,1.82 -6.73,2 -10.2,2.35 -4,0.33 -8,0.85 -11.12,3.51 -0.4,0.34 0.38,2.06 0,2.38 5.72,-4.82 13.59,-2.36 20,-5.21 a 10.13,10.13 0 0 0 6.14,-7.36 31.81,31.81 0 0 0 0.26,-7.86 c 0,-0.69 -0.09,-1.38 -0.13,-2.07 a 2.5,2.5 0 0 0 0,-0.56 c 0.1,0.12 -0.08,1 0,0.34 0.05,-0.42 0.07,-0.84 0.15,-1.26 A 3,3 0 0 1 134,39 c 0.2,0 -0.15,-2.33 0,-2.37 z"
     style="fill:#821917"
     id="path532" />
  <path
     d="m 173.29,150.58 q 0,-11.48 -1,-21.76 -1,-10.28 -2.1,-18.12 -1.41,-9.09 -2.94,-16.79 l -9,-0.84 v -2 c 2.24,0.28 5,0.52 8.26,0.7 2.7,0.19 6.16,0.35 10.35,0.49 4.19,0.14 9.1,0.21 14.7,0.21 q 8.81,0 17.35,-0.35 8.54,-0.35 18.75,-1 a 53.08,53.08 0 0 0 -4.2,11.48 64.88,64.88 0 0 0 -2.1,13.71 25.86,25.86 0 0 0 -4.69,-9.8 27.31,27.31 0 0 0 -7.9,-6.85 38.23,38.23 0 0 0 -10.15,-4 47.77,47.77 0 0 0 -11.26,-1.33 q -0.84,8.69 -1,18.75 -0.16,10.06 -0.2,18.92 0,10.22 0.42,20.43 a 112.92,112.92 0 0 0 12.45,-1 106.27,106.27 0 0 0 11.55,-2.24 53.48,53.48 0 0 0 11.68,-4.34 87.49,87.49 0 0 0 -0.91,9 c -0.14,2.89 -0.21,5.46 -0.21,7.69 q 0,3.93 0.28,7.56 l -1.4,-0.56 a 8.05,8.05 0 0 0 -2.94,-6.86 21.24,21.24 0 0 0 -8,-3.84 50.8,50.8 0 0 0 -10.92,-1.61 q -6,-0.28 -11.61,-0.14 -0.29,4.2 -0.35,9.16 -0.06,4.96 0,10.08 0.06,5.1 0.21,10.28 0.15,5.18 0.42,9.94 0.55,11.19 1.12,22.66 a 132.65,132.65 0 0 0 20.85,0.56 73.76,73.76 0 0 0 7.9,-0.7 43.75,43.75 0 0 0 7.28,-1.61 20.45,20.45 0 0 0 5.59,-2.66 7.27,7.27 0 0 0 3,-4.12 l 0.42,0.84 c -1.12,2.89 -2.14,5.64 -3.08,8.25 q -1.26,3.36 -2.37,6.79 c -0.75,2.29 -1.31,4 -1.68,5.25 q -12.89,0 -24.21,-0.84 -11.32,-0.84 -23.09,-0.84 -4.34,0 -7.48,0.28 c -2.1,0.18 -3.85,0.37 -5.25,0.56 -1.68,0.28 -3.13,0.56 -4.34,0.84 v -1.68 l 8.12,-1.12 q 1,-15.12 1.82,-29.39 0.27,-6 0.63,-12.59 0.36,-6.59 0.63,-12.87 0.27,-6.3 0.42,-12.11 0.15,-5.81 0.18,-10.47 z"
     style="fill:#821917"
     id="path534" />
  <path
     d="m 354.46,230.62 -4.2,-0.7 c -1.4,-0.19 -3.13,-0.35 -5.18,-0.49 -2.05,-0.14 -4.39,-0.21 -7,-0.21 -2.61,0 -5.09,0.07 -7.14,0.21 -2.05,0.14 -3.73,0.3 -5,0.49 l -4.06,0.7 v -1.4 l 5.46,-0.84 q 0,-15.54 -0.28,-33.44 -0.28,-15.39 -0.84,-35.4 -0.56,-20.01 -1.54,-42.4 -1.54,7.41 -4.13,18.82 -2.59,11.41 -6.55,25.88 -4,14.49 -9.38,31.35 -5.38,16.86 -12.38,35.19 -2.52,-5.32 -5.32,-13.16 -2.8,-7.84 -5.8,-17.14 -3,-9.3 -6,-19.59 -3,-10.29 -5.95,-20.49 -2.86,-10.22 -5.66,-19.94 -2.8,-9.72 -5.18,-17.84 -0.42,8.11 -0.49,17.14 -0.07,9.03 0.07,18.12 0.14,9.09 0.42,18.05 0.28,8.96 0.56,17.07 0.69,19 2,37.78 l 8.67,0.84 V 231 c -1.49,-0.28 -3.07,-0.56 -4.75,-0.84 l -4.9,-0.63 a 45,45 0 0 0 -5.74,-0.35 q -3.78,0 -6.64,0.21 c -1.92,0.14 -3.53,0.3 -4.83,0.49 l -3.92,0.7 v -1.4 l 6.72,-0.84 q 1.53,-5.46 3.35,-19.59 0.84,-6 1.68,-14.55 0.84,-8.55 1.82,-20.08 1,-11.55 2,-26.31 1,-14.76 2.1,-33.51 -3.3,-9.2 -5.45,-14.79 -2.15,-5.59 -3.56,-6 a 14.76,14.76 0 0 1 -3.78,-1 1.53,1.53 0 0 1 -0.7,-0.28 V 91 c 1.3,0.28 2.66,0.52 4.06,0.7 1.21,0.19 2.51,0.33 3.91,0.42 1.4,0.09 2.75,0.14 4.06,0.14 1.31,0 2.85,0 4.62,-0.14 1.77,-0.14 3.45,-0.23 5,-0.42 1.77,-0.18 3.59,-0.42 5.45,-0.7 q 0.84,5.88 2.45,13.93 1.61,8.05 3.8,17.07 2.16,9 4.62,18.61 2.46,9.61 4.82,18.68 5.59,21.41 12.32,44.63 4.05,-15.1 8.53,-31.9 3.78,-14.42 8.4,-32.32 4.62,-17.9 9.09,-36.52 c -0.19,-2.15 -0.33,-4.22 -0.42,-6.23 -0.09,-2.01 -0.28,-4 -0.56,-6 a 9,9 0 0 0 2.38,0.7 22.14,22.14 0 0 0 3.29,0.42 c 1.35,0.1 3,0.14 4.83,0.14 2.24,0 4.31,0 6.22,-0.14 1.91,-0.14 3.52,-0.23 4.83,-0.42 1.59,-0.18 3,-0.42 4.34,-0.7 v 1.26 l -6.72,1.26 a 157.2,157.2 0 0 0 -1,16.3 q -0.14,9.45 0.14,20.22 0.28,10.77 0.91,22.25 0.63,11.48 1.33,22.39 1.68,25.6 4.48,53.73 l 6.3,1.26 z"
     style="fill:#821917"
     id="path536" />
  <path
     d="m 223.39,251.05 c 0,-0.87 0,-1.71 -0.08,-2.53 -0.08,-0.82 -0.11,-1.55 -0.17,-2.2 -0.06,-0.65 -0.16,-1.47 -0.25,-2.13 L 222,244 v -0.16 l 0.61,0.08 0.69,0.06 c 0.27,0 0.56,0 0.89,0 0.33,0 0.68,0 0.94,0 l 0.67,-0.06 c 0.2,0 0.38,0 0.53,-0.08 V 244 l -0.87,0.16 c -0.07,0.61 -0.12,1.27 -0.17,2 -0.05,0.73 -0.08,1.32 -0.11,2.12 -0.03,0.8 0,1.65 0,2.54 0,1.14 0,2.28 0.08,3.43 0.08,1.15 0.1,2.17 0.16,3.1 0.06,0.93 0.15,2.12 0.25,3.12 l 0.92,0.17 v 0.15 l -0.63,-0.07 -0.74,-0.06 c -0.29,0 -0.62,0 -1,0 -0.38,0 -0.69,0 -1,0 l -0.65,0.06 a 3.19,3.19 0 0 0 -0.47,0.07 v -0.17 l 0.72,-0.1 c 0.12,-0.76 0.22,-1.62 0.31,-2.6 0.09,-0.98 0.15,-1.83 0.21,-3 0.06,-1.17 0.05,-2.43 0.05,-3.87 z"
     style="fill:#821917"
     id="path538" />
  <path
     d="m 240.6,244.17 a 17.81,17.81 0 0 0 -0.22,1.79 c -0.06,0.72 -0.11,1.5 -0.15,2.36 -0.04,0.86 -0.08,1.76 -0.11,2.69 -0.03,0.93 0,1.85 -0.05,2.75 0,2.12 0,4.37 0,6.77 q -1.33,-1.78 -2.6,-3.62 c -0.84,-1.23 -1.64,-2.42 -2.4,-3.58 -0.76,-1.16 -1.47,-2.25 -2.13,-3.29 -0.66,-1.04 -1.25,-1.94 -1.77,-2.73 q 0,1 0.12,2.37 c 0.06,0.89 0.12,1.8 0.18,2.74 0.06,0.94 0.13,1.85 0.21,2.77 0.08,0.92 0.16,1.75 0.25,2.5 0.09,0.75 0.17,1.38 0.26,1.89 a 3.42,3.42 0 0 0 0.25,0.95 l 1.1,0.17 0.06,0.11 -0.67,-0.08 -0.71,-0.06 c -0.27,0 -0.56,0 -0.88,0 -0.32,0 -0.68,0 -0.95,0 l -0.69,0.06 -0.56,0.08 v -0.16 l 0.88,-0.12 a 3.16,3.16 0 0 0 0.26,-1.09 c 0.07,-0.56 0.14,-1.25 0.19,-2.07 0.05,-0.82 0.09,-1.71 0.12,-2.7 0.03,-0.99 0,-2 0.05,-3 0.05,-1 0,-2 0,-2.91 0,-0.91 0,-1.76 -0.06,-2.47 -0.43,-0.61 -0.78,-1.1 -1.06,-1.45 -0.28,-0.35 -0.47,-0.54 -0.58,-0.54 h -0.38 l -0.06,-0.15 c 0.39,0 0.79,0 1.18,-0.07 l 1.09,-0.09 a 6.85,6.85 0 0 0 1,-0.18 13.06,13.06 0 0 0 0.76,1.6 c 0.32,0.61 0.67,1.25 1.06,1.92 0.39,0.67 0.81,1.36 1.25,2.07 0.44,0.71 0.87,1.39 1.3,2.06 1,1.57 2.09,3.19 3.26,4.88 q 0,-2.76 -0.12,-5.19 c 0,-0.69 -0.07,-1.38 -0.12,-2.08 -0.05,-0.7 -0.1,-1.37 -0.16,-2 -0.06,-0.63 -0.14,-1.19 -0.23,-1.7 a 7.74,7.74 0 0 0 -0.3,-1.22 l -1.31,-0.17 v -0.17 c 0.22,0 0.44,0.06 0.68,0.09 l 0.69,0.05 c 0.26,0 0.53,0 0.82,0 0.29,0 0.62,0 0.9,0 l 0.77,-0.05 c 0.26,0 0.51,0 0.73,-0.09 v 0.17 z"
     style="fill:#821917"
     id="path540" />
  <path
     d="m 244.07,248.49 a 4.26,4.26 0 0 1 0.54,-2.23 4.34,4.34 0 0 1 1.31,-1.41 5.28,5.28 0 0 1 1.68,-0.75 7.18,7.18 0 0 1 1.61,-0.22 4.77,4.77 0 0 1 0.94,0.08 4.11,4.11 0 0 0 0.82,0.07 h 0.45 l 0.33,-0.05 a 1.31,1.31 0 0 0 0.26,-0.09 6.41,6.41 0 0 0 -0.76,2 6.23,6.23 0 0 0 -0.12,1.88 H 251 a 2.43,2.43 0 0 0 -0.29,-1.18 2.84,2.84 0 0 0 -0.8,-0.89 3.87,3.87 0 0 0 -1.15,-0.57 4.54,4.54 0 0 0 -1.39,-0.2 2,2 0 0 0 -0.57,0.1 1.85,1.85 0 0 0 -0.65,0.34 2,2 0 0 0 -0.52,0.62 1.93,1.93 0 0 0 -0.22,1 3.11,3.11 0 0 0 0.3,1.38 5,5 0 0 0 0.8,1.15 7.33,7.33 0 0 0 1.13,1 l 1.3,0.91 c 0.45,0.31 0.88,0.62 1.31,0.94 a 7.46,7.46 0 0 1 1.12,1 5,5 0 0 1 0.8,1.22 3.47,3.47 0 0 1 0.31,1.5 4.83,4.83 0 0 1 -0.27,1.69 4.64,4.64 0 0 1 -0.71,1.26 4,4 0 0 1 -1,0.86 5.31,5.31 0 0 1 -1.13,0.54 5.4,5.4 0 0 1 -1.12,0.28 7.14,7.14 0 0 1 -1,0.08 c -0.33,0 -0.64,0 -0.9,0 a 7,7 0 0 1 -0.72,-0.06 l -0.59,-0.06 h -0.51 a 1,1 0 0 0 -0.29,0 l -0.29,0.08 a 2.26,2.26 0 0 0 -0.31,0.1 2.33,2.33 0 0 0 0.55,-1 5.38,5.38 0 0 0 0.19,-1.38 7.71,7.71 0 0 0 -0.3,-2.13 h 0.28 a 2.28,2.28 0 0 0 0.39,1.23 4.51,4.51 0 0 0 1,1.13 5.6,5.6 0 0 0 1.43,0.82 4.35,4.35 0 0 0 1.6,0.32 4.85,4.85 0 0 0 0.83,-0.08 1.93,1.93 0 0 0 0.77,-0.31 1.69,1.69 0 0 0 0.57,-0.66 2.81,2.81 0 0 0 0.22,-1.19 2.86,2.86 0 0 0 -0.31,-1.35 4.06,4.06 0 0 0 -0.81,-1.1 8.38,8.38 0 0 0 -1.15,-0.94 c -0.42,-0.3 -0.86,-0.59 -1.31,-0.88 -0.45,-0.29 -0.89,-0.6 -1.31,-0.92 a 7.21,7.21 0 0 1 -1.15,-1.05 4.54,4.54 0 0 1 -0.81,-1.29 4.09,4.09 0 0 1 -0.25,-1.59 z"
     style="fill:#821917"
     id="path542" />
  <path
     d="m 258.9,251 c 0,-0.83 0,-1.57 0,-2.22 0,-0.65 -0.06,-1.18 -0.09,-1.62 -0.03,-0.44 -0.09,-1 -0.14,-1.36 q -1.06,0 -1.74,0 a 4.17,4.17 0 0 0 -1.12,0.16 1.53,1.53 0 0 0 -0.72,0.43 3.38,3.38 0 0 0 -0.55,0.85 h -0.1 a 5.58,5.58 0 0 0 0.5,-1.07 9.62,9.62 0 0 0 0.36,-1.12 c 0.11,-0.4 0.21,-0.81 0.29,-1.23 h 0.18 v 0.27 c 1.56,0 2.91,0 4,0.08 1.09,0.08 2.08,0.1 2.84,0.11 a 10.62,10.62 0 0 0 1.73,-0.06 0.93,0.93 0 0 0 0.76,-0.45 h 0.1 a 4,4 0 0 0 -0.39,0.78 q -0.17,0.39 -0.36,1 c -0.12,0.4 -0.24,0.88 -0.35,1.43 h -0.12 a 1.68,1.68 0 0 0 0,-0.63 0.62,0.62 0 0 0 -0.39,-0.42 3.29,3.29 0 0 0 -1,-0.21 15.45,15.45 0 0 0 -1.84,0 c 0,0.51 -0.05,1.06 -0.07,1.66 -0.02,0.6 0,1.09 0,1.75 0,0.66 0,1.34 0,2.05 0,1.24 0,2.42 0.08,3.54 0.08,1.12 0.12,2.1 0.19,2.95 0.07,0.85 0.18,1.92 0.29,2.78 l 1.1,0.15 0.05,0.17 -0.61,-0.05 h -0.69 -0.9 -1.14 -0.83 l -0.68,0.05 v -0.1 l 1.17,-0.22 c 0.05,-0.71 0.09,-1.54 0.14,-2.49 0.05,-0.95 0.06,-1.81 0.09,-3 0.03,-1.19 -0.04,-2.45 -0.04,-3.96 z"
     style="fill:#821917"
     id="path544" />
  <path
     d="m 266.85,251.05 c 0,-0.87 0,-1.71 -0.08,-2.53 -0.08,-0.82 -0.11,-1.55 -0.17,-2.2 -0.06,-0.65 -0.16,-1.47 -0.25,-2.13 l -0.94,-0.16 v -0.16 l 0.61,0.08 0.69,0.06 c 0.27,0 0.56,0 0.89,0 0.33,0 0.67,0 0.94,0 l 0.67,-0.06 c 0.2,0 0.38,0 0.53,-0.08 V 244 l -0.87,0.16 c -0.07,0.61 -0.12,1.27 -0.17,2 -0.05,0.73 -0.08,1.32 -0.11,2.12 -0.03,0.8 0,1.65 0,2.54 0,1.14 0,2.28 0.07,3.43 0.07,1.15 0.11,2.17 0.17,3.1 0.06,0.93 0.15,2.12 0.25,3.12 l 0.92,0.17 v 0.15 l -0.63,-0.07 -0.74,-0.06 c -0.29,0 -0.62,0 -1,0 -0.38,0 -0.69,0 -1,0 l -0.65,0.06 a 3.19,3.19 0 0 0 -0.47,0.07 v -0.17 l 0.72,-0.1 c 0.12,-0.76 0.22,-1.62 0.31,-2.6 0.09,-0.98 0.15,-1.83 0.21,-3 0.06,-1.17 0.1,-2.43 0.1,-3.87 z"
     style="fill:#821917"
     id="path546" />
  <path
     d="m 276.41,251 c 0,-0.83 0,-1.57 0,-2.22 0,-0.65 -0.06,-1.18 -0.09,-1.62 -0.03,-0.44 -0.09,-1 -0.14,-1.36 q -1.06,0 -1.74,0 a 4.17,4.17 0 0 0 -1.12,0.16 1.53,1.53 0 0 0 -0.72,0.43 3.38,3.38 0 0 0 -0.55,0.85 h -0.1 a 5.58,5.58 0 0 0 0.5,-1.07 9.62,9.62 0 0 0 0.36,-1.12 c 0.11,-0.4 0.21,-0.81 0.29,-1.23 h 0.18 l -0.05,0.27 c 1.56,0 2.91,0 4.05,0.08 1.14,0.08 2.08,0.1 2.84,0.11 a 10.62,10.62 0 0 0 1.73,-0.06 0.93,0.93 0 0 0 0.76,-0.45 h 0.1 a 4,4 0 0 0 -0.39,0.78 9.54,9.54 0 0 0 -0.36,1 c -0.12,0.4 -0.24,0.88 -0.35,1.43 h -0.12 a 1.68,1.68 0 0 0 0,-0.63 0.62,0.62 0 0 0 -0.39,-0.42 3.29,3.29 0 0 0 -1,-0.21 15.45,15.45 0 0 0 -1.84,0 c 0,0.51 0,1.06 -0.07,1.66 -0.07,0.6 0,1.09 0,1.75 0,0.66 0,1.34 0,2.05 0,1.24 0,2.42 0.08,3.54 0.08,1.12 0.12,2.1 0.19,2.95 0.07,0.85 0.18,1.92 0.29,2.78 l 1.1,0.15 v 0.17 l -0.61,-0.05 h -0.69 -0.9 -1.14 -0.83 l -0.68,0.05 v -0.1 l 1.17,-0.22 c 0.05,-0.71 0.09,-1.54 0.14,-2.49 0.05,-0.95 0.06,-1.81 0.09,-3 0.03,-1.19 0.01,-2.45 0.01,-3.96 z"
     style="fill:#821917"
     id="path548" />
  <path
     d="m 295.36,260.66 a 5.39,5.39 0 0 0 -0.91,-0.12 c -0.32,0 -0.62,0 -0.92,0 -0.3,0 -0.57,0.06 -0.82,0.1 -0.25,0.04 -0.47,0.1 -0.63,0.15 0,-0.2 0,-0.44 0.06,-0.71 0.06,-0.27 0,-0.5 0.05,-0.83 0.05,-0.33 0,-0.69 0,-1.08 a 6.65,6.65 0 0 1 -0.56,0.8 5,5 0 0 1 -0.9,0.86 5,5 0 0 1 -1.26,0.68 4.46,4.46 0 0 1 -1.65,0.28 3.5,3.5 0 0 1 -2.23,-0.58 3,3 0 0 1 -1,-1.75 12.73,12.73 0 0 1 -0.23,-2.9 c 0,-1.17 0,-2.52 0,-4.07 0,-1 0,-2 -0.07,-2.9 -0.07,-0.9 -0.1,-1.65 -0.15,-2.3 -0.05,-0.65 -0.13,-1.47 -0.21,-2.09 l -1.05,-0.15 -0.05,-0.19 0.65,0.1 a 6.71,6.71 0 0 0 0.73,0.06 c 0.29,0 0.62,0 1,0 0.38,0 0.69,0 1,0 a 5.35,5.35 0 0 0 0.67,-0.06 5.53,5.53 0 0 0 0.55,-0.1 v 0.19 l -0.92,0.15 c -0.11,0.89 -0.21,1.8 -0.29,2.73 0,0.4 -0.07,0.81 -0.1,1.25 -0.03,0.44 -0.06,0.87 -0.08,1.32 -0.02,0.45 -0.05,0.89 -0.06,1.33 -0.01,0.44 0,0.86 0,1.27 0,0.62 0,1.23 0,1.82 0,0.59 0,1.16 0.07,1.69 a 7.23,7.23 0 0 0 0.28,1.47 3.3,3.3 0 0 0 0.61,1.16 2.74,2.74 0 0 0 1.06,0.76 4.4,4.4 0 0 0 1.66,0.27 3,3 0 0 0 1.12,-0.18 2.35,2.35 0 0 0 0.73,-0.47 A 2.58,2.58 0 0 0 292,258 c 0.12,-0.25 0.22,-0.51 0.32,-0.77 0,-1 0.1,-2.08 0.14,-3.27 0.04,-1.19 0.06,-2.37 0.06,-3.52 0,-1.15 0,-2.19 -0.09,-3 -0.09,-0.81 -0.11,-1.42 -0.18,-1.89 a 10.35,10.35 0 0 0 -0.26,-1.31 l -1.27,-0.15 v -0.19 l 0.61,0.1 a 6.17,6.17 0 0 0 0.67,0.06 c 0.26,0 0.53,0 0.82,0 0.29,0 0.73,0 1,0 a 4.49,4.49 0 0 0 0.63,-0.06 2.24,2.24 0 0 0 0.44,-0.1 v 0.19 l -0.49,0.15 c -0.1,0.68 -0.19,1.46 -0.25,2.36 -0.06,0.9 -0.13,1.7 -0.18,2.8 -0.05,1.1 -0.08,2.36 -0.08,3.77 0,0.85 0,1.66 0,2.44 0,0.78 0,1.47 0,2.11 a 13.42,13.42 0 0 0 0.14,1.62 2.17,2.17 0 0 0 0.3,1 l 1,0.2 z"
     style="fill:#821917"
     id="path550" />
  <path
     d="m 301.82,251 c 0,-0.83 0,-1.57 0,-2.22 0,-0.65 -0.06,-1.18 -0.09,-1.62 -0.03,-0.44 -0.09,-1 -0.14,-1.36 q -1.06,0 -1.74,0 a 4.11,4.11 0 0 0 -1.12,0.16 1.53,1.53 0 0 0 -0.72,0.43 3.67,3.67 0 0 0 -0.56,0.85 h -0.1 a 5.05,5.05 0 0 0 0.51,-1.07 9.62,9.62 0 0 0 0.36,-1.12 c 0.11,-0.4 0.21,-0.81 0.29,-1.23 h 0.18 l -0.05,0.27 c 1.56,0 2.91,0 4.05,0.08 1.14,0.08 2.08,0.1 2.83,0.11 a 10.7,10.7 0 0 0 1.74,-0.06 0.91,0.91 0 0 0 0.75,-0.45 h 0.11 a 4,4 0 0 0 -0.39,0.78 9.54,9.54 0 0 0 -0.36,1 c -0.12,0.4 -0.24,0.88 -0.35,1.43 h -0.12 a 1.92,1.92 0 0 0 0,-0.63 0.61,0.61 0 0 0 -0.4,-0.42 3.22,3.22 0 0 0 -1,-0.21 15.45,15.45 0 0 0 -1.84,0 c 0,0.51 0,1.06 -0.07,1.66 -0.07,0.6 0,1.09 0,1.75 0,0.66 0,1.34 0,2.05 0,1.24 0,2.42 0.08,3.54 0.08,1.12 0.12,2.1 0.19,2.95 0.07,0.85 0.17,1.92 0.29,2.78 l 1.1,0.15 0.05,0.17 -0.61,-0.05 h -0.7 -0.89 -1.14 -0.83 l -0.68,0.05 v -0.1 l 1.17,-0.22 c 0,-0.71 0.09,-1.54 0.14,-2.49 0.05,-0.95 0.06,-1.81 0.09,-3 0.03,-1.19 -0.03,-2.45 -0.03,-3.96 z"
     style="fill:#821917"
     id="path552" />
  <path
     d="m 308.33,252.75 a 12,12 0 0 1 0.49,-3.51 9.93,9.93 0 0 1 1.31,-2.82 6.54,6.54 0 0 1 1.86,-1.88 4,4 0 0 1 2.17,-0.67 4.69,4.69 0 0 1 2.43,0.64 6.06,6.06 0 0 1 1.87,1.74 8.49,8.49 0 0 1 1.18,2.58 11.47,11.47 0 0 1 0.42,3.15 14.46,14.46 0 0 1 -0.47,3.88 8.44,8.44 0 0 1 -1.27,2.75 5.26,5.26 0 0 1 -1.86,1.65 4.8,4.8 0 0 1 -2.25,0.55 6,6 0 0 1 -2.18,-0.36 4.81,4.81 0 0 1 -1.57,-1 5.35,5.35 0 0 1 -1.07,-1.43 8,8 0 0 1 -0.65,-1.71 11.08,11.08 0 0 1 -0.33,-1.81 c -0.05,-0.6 -0.08,-1.19 -0.08,-1.75 z m 6.14,7.62 a 2.18,2.18 0 0 0 1.59,-0.61 4.07,4.07 0 0 0 1,-1.69 12,12 0 0 0 0.51,-2.55 31.7,31.7 0 0 0 0.14,-3.2 14.57,14.57 0 0 0 -0.09,-1.51 15.88,15.88 0 0 0 -0.28,-1.75 13.37,13.37 0 0 0 -0.49,-1.75 7.16,7.16 0 0 0 -0.74,-1.52 4.19,4.19 0 0 0 -1,-1.09 2.12,2.12 0 0 0 -1.27,-0.41 1.83,1.83 0 0 0 -1.43,0.68 5.3,5.3 0 0 0 -1,1.8 12.64,12.64 0 0 0 -0.59,2.6 25.3,25.3 0 0 0 -0.18,3.06 c 0,0.4 0,0.88 0.07,1.44 a 15.79,15.79 0 0 0 0.26,1.71 14.85,14.85 0 0 0 0.46,1.74 7.37,7.37 0 0 0 0.71,1.55 4.05,4.05 0 0 0 1,1.09 2.21,2.21 0 0 0 1.33,0.41 z"
     style="fill:#821917"
     id="path554" />
  <path
     d="m 333.81,250.36 c 0,-0.76 0,-1.51 -0.05,-2.25 -0.05,-0.74 -0.08,-1.4 -0.13,-2 -0.05,-0.6 -0.11,-1.06 -0.17,-1.43 -0.06,-0.37 -0.13,-0.55 -0.19,-0.56 l -0.79,-0.17 v -0.17 l 0.61,0.08 0.64,0.06 c 0.23,0 0.48,0 0.74,0 h 0.62 l 0.66,-0.06 0.74,-0.06 h 0.91 a 6.15,6.15 0 0 1 4.83,2.23 8,8 0 0 1 1.41,2.57 10.3,10.3 0 0 1 0.51,3.33 14.34,14.34 0 0 1 -0.31,3.11 9.93,9.93 0 0 1 -0.81,2.33 6.28,6.28 0 0 1 -1.18,1.64 6.77,6.77 0 0 1 -1.37,1.05 5.22,5.22 0 0 1 -1.41,0.57 5.74,5.74 0 0 1 -1.3,0.17 c -0.55,0 -1.12,0 -1.71,-0.08 -0.59,-0.08 -1.13,-0.07 -1.64,-0.07 -0.3,0 -0.56,0 -0.8,0 l -0.63,0.07 -0.56,0.1 v -0.2 l 0.89,-0.12 c 0.09,-0.74 0.16,-1.61 0.23,-2.63 0.07,-1.02 0.12,-1.93 0.17,-3.19 0.05,-1.26 0.09,-2.68 0.09,-4.32 z m 3.84,10.17 a 2.61,2.61 0 0 0 1.39,-0.38 3.87,3.87 0 0 0 1.06,-1 6.68,6.68 0 0 0 0.77,-1.51 12.54,12.54 0 0 0 0.53,-1.8 17.62,17.62 0 0 0 0.3,-1.93 c 0.06,-0.65 0.09,-1.27 0.09,-1.87 a 10.57,10.57 0 0 0 -0.37,-2.75 10.7,10.7 0 0 0 -1,-2.54 6.7,6.7 0 0 0 -1.52,-1.85 2.9,2.9 0 0 0 -1.89,-0.72 3,3 0 0 0 -0.77,0.09 1.15,1.15 0 0 0 -0.55,0.33 c -0.06,0.37 -0.1,0.79 -0.13,1.24 -0.03,0.45 -0.05,0.95 -0.07,1.5 -0.02,0.55 0,1.15 0,1.82 0,0.67 0,1.41 0,2.22 0,0.58 0,1.2 0,1.88 l 0.06,2.06 c 0,0.7 0.05,1.38 0.09,2.05 0.04,0.67 0.06,1.3 0.08,1.88 a 1.85,1.85 0 0 0 1.93,1.28 z"
     style="fill:#821917"
     id="path556" />
  <path
     d="m 347.91,251.09 q 0,-1.4 -0.12,-2.64 c -0.08,-0.83 -0.16,-1.56 -0.25,-2.2 -0.09,-0.64 -0.24,-1.41 -0.36,-2 l -1.09,-0.1 v -0.24 c 0.28,0 0.61,0.06 1,0.09 l 1.26,0.06 h 1.78 c 0.71,0 1.41,0 2.1,0 0.69,0 1.45,-0.07 2.27,-0.13 a 6.83,6.83 0 0 0 -0.51,1.39 8.24,8.24 0 0 0 -0.25,1.66 3,3 0 0 0 -0.57,-1.18 3.07,3.07 0 0 0 -1,-0.83 4.46,4.46 0 0 0 -1.23,-0.49 6.17,6.17 0 0 0 -1.36,-0.16 c -0.07,0.7 -0.11,1.46 -0.13,2.27 -0.02,0.81 0,1.58 0,2.29 0,0.71 0,1.65 0,2.48 0.5,0 1,-0.05 1.51,-0.12 0.51,-0.07 0.89,-0.15 1.4,-0.27 a 6.61,6.61 0 0 0 1.41,-0.53 10.59,10.59 0 0 0 -0.11,1.09 c 0,0.35 0,0.66 0,0.93 0,0.27 0,0.62 0,0.91 l -0.17,-0.06 a 1,1 0 0 0 -0.36,-0.83 2.54,2.54 0 0 0 -1,-0.47 6.53,6.53 0 0 0 -1.32,-0.2 c -0.49,0 -1,0 -1.41,0 0,0.34 0,0.71 0,1.11 0,0.4 0,0.8 0,1.22 0,0.42 0,0.83 0,1.24 0,0.41 0,0.82 0.05,1.21 0.05,0.9 0.09,1.82 0.14,2.74 a 15.68,15.68 0 0 0 2.52,0.07 c 0.32,0 0.64,0 1,-0.08 a 5.19,5.19 0 0 0 0.88,-0.2 2.38,2.38 0 0 0 0.68,-0.32 0.91,0.91 0 0 0 0.37,-0.5 v 0.1 c -0.14,0.35 -0.26,0.68 -0.38,1 -0.12,0.32 -0.19,0.55 -0.29,0.82 l -0.2,0.64 c -1,0 -2,0 -2.93,-0.1 -0.93,-0.1 -1.85,-0.11 -2.8,-0.11 -0.35,0 -0.65,0 -0.9,0 -0.25,0 -0.47,0 -0.64,0.07 a 5.06,5.06 0 0 0 -0.53,0.1 v -0.21 l 1,-0.13 c 0.08,-1.22 0.15,-2.41 0.22,-3.56 0,-0.49 0.05,-1 0.07,-1.53 0.02,-0.53 0.06,-1.05 0.08,-1.56 0.02,-0.51 0,-1 0.05,-1.46 0.05,-0.46 0.12,-0.91 0.12,-1.28 z"
     style="fill:#821917"
     id="path558" />
  <path
     d="m 162,273.46 c 0,-0.92 0,-1.8 -0.12,-2.63 -0.12,-0.83 -0.17,-1.56 -0.26,-2.2 -0.09,-0.64 -0.23,-1.41 -0.35,-2 l -1.09,-0.1 v -0.24 l 1,0.09 c 0.33,0 0.75,0 1.26,0.05 0.51,0.05 1.1,0 1.78,0 0.68,0 1.41,0 2.1,0 0.69,0 1.45,-0.07 2.27,-0.13 a 6.61,6.61 0 0 0 -0.51,1.39 8.24,8.24 0 0 0 -0.25,1.66 3.06,3.06 0 0 0 -0.57,-1.19 3.49,3.49 0 0 0 -1,-0.83 4.77,4.77 0 0 0 -1.23,-0.48 5.62,5.62 0 0 0 -1.36,-0.16 c -0.07,0.7 -0.11,1.46 -0.13,2.27 -0.02,0.81 0,1.58 0,2.29 0,0.71 0,1.65 0.05,2.47 0.49,0 1,-0.05 1.51,-0.11 a 12.22,12.22 0 0 0 1.39,-0.28 6,6 0 0 0 1.42,-0.52 10.41,10.41 0 0 0 -0.11,1.08 c 0,0.36 0,0.66 0,0.94 a 9,9 0 0 0 0,0.91 l -0.17,-0.07 a 1,1 0 0 0 -0.36,-0.83 2.68,2.68 0 0 0 -1,-0.46 6.52,6.52 0 0 0 -1.33,-0.2 c -0.48,0 -1,0 -1.4,0 0,0.33 0,0.7 -0.05,1.1 v 1.23 1.24 c 0,0.42 0,0.82 0.05,1.21 0,0.9 0.09,1.81 0.14,2.74 a 16.89,16.89 0 0 0 2.52,0.07 7.79,7.79 0 0 0 1,-0.09 5.22,5.22 0 0 0 0.88,-0.19 2.68,2.68 0 0 0 0.68,-0.32 0.85,0.85 0 0 0 0.36,-0.5 l 0.06,0.1 c -0.14,0.35 -0.27,0.68 -0.38,1 -0.11,0.32 -0.2,0.54 -0.29,0.82 l -0.2,0.64 c -1,0 -2,0 -2.93,-0.11 -0.93,-0.11 -1.85,-0.1 -2.8,-0.1 a 8.12,8.12 0 0 0 -0.91,0 l -0.63,0.06 -0.53,0.11 V 283 l 1,-0.13 c 0.08,-1.22 0.15,-2.41 0.22,-3.56 0,-0.49 0,-1 0.07,-1.53 0.07,-0.53 0.06,-1.05 0.08,-1.56 0.02,-0.51 0,-1 0,-1.46 0,-0.46 0.12,-0.92 0.12,-1.3 z"
     style="fill:#821917"
     id="path560" />
  <path
     d="m 171.61,270.87 a 4.26,4.26 0 0 1 0.54,-2.23 4.34,4.34 0 0 1 1.31,-1.41 5.28,5.28 0 0 1 1.68,-0.75 6.65,6.65 0 0 1 1.61,-0.22 4.77,4.77 0 0 1 0.94,0.08 4.11,4.11 0 0 0 0.82,0.07 H 179 l 0.33,-0.05 0.26,-0.09 a 6.41,6.41 0 0 0 -0.76,2 6.23,6.23 0 0 0 -0.12,1.88 h -0.16 a 2.43,2.43 0 0 0 -0.29,-1.18 2.73,2.73 0 0 0 -0.8,-0.89 3.64,3.64 0 0 0 -1.15,-0.57 4.54,4.54 0 0 0 -1.39,-0.21 2.35,2.35 0 0 0 -1.22,0.44 2.19,2.19 0 0 0 -0.52,0.63 1.91,1.91 0 0 0 -0.22,1 3.11,3.11 0 0 0 0.3,1.38 5,5 0 0 0 0.8,1.15 6.79,6.79 0 0 0 1.13,1 c 0.42,0.31 0.86,0.61 1.3,0.92 0.44,0.31 0.88,0.62 1.31,0.94 a 8.06,8.06 0 0 1 1.13,1 5.1,5.1 0 0 1 0.79,1.22 3.43,3.43 0 0 1 0.31,1.49 4.89,4.89 0 0 1 -0.27,1.7 4.21,4.21 0 0 1 -0.71,1.25 4,4 0 0 1 -1,0.87 5.84,5.84 0 0 1 -1.13,0.54 5.25,5.25 0 0 1 -1.12,0.28 7,7 0 0 1 -1,0.08 c -0.33,0 -0.64,0 -0.9,0 l -0.72,-0.06 -0.59,-0.06 h -0.51 a 1,1 0 0 0 -0.29,0 l -0.29,0.08 a 2.26,2.26 0 0 0 -0.31,0.1 2.33,2.33 0 0 0 0.55,-1 5.38,5.38 0 0 0 0.19,-1.38 7.71,7.71 0 0 0 -0.3,-2.13 h 0.28 a 2.28,2.28 0 0 0 0.39,1.23 4.69,4.69 0 0 0 1,1.13 5.6,5.6 0 0 0 1.43,0.82 4.33,4.33 0 0 0 1.6,0.31 4.81,4.81 0 0 0 0.83,-0.07 2.08,2.08 0 0 0 0.77,-0.31 1.66,1.66 0 0 0 0.57,-0.67 2.76,2.76 0 0 0 0.22,-1.18 2.86,2.86 0 0 0 -0.31,-1.35 4.06,4.06 0 0 0 -0.81,-1.1 7.7,7.7 0 0 0 -1.15,-0.94 c -0.42,-0.3 -0.86,-0.59 -1.31,-0.88 -0.45,-0.29 -0.89,-0.6 -1.31,-0.92 a 7.72,7.72 0 0 1 -1.15,-1 4.68,4.68 0 0 1 -0.81,-1.29 4.09,4.09 0 0 1 -0.26,-1.65 z"
     style="fill:#821917"
     id="path562" />
  <path
     d="m 186.44,273.36 c 0,-0.83 0,-1.57 0,-2.22 0,-0.65 -0.06,-1.18 -0.09,-1.62 -0.03,-0.44 -0.09,-1 -0.14,-1.36 q -1.06,0 -1.74,0 a 3.8,3.8 0 0 0 -1.12,0.16 1.53,1.53 0 0 0 -0.72,0.43 3.2,3.2 0 0 0 -0.55,0.85 h -0.1 a 5.88,5.88 0 0 0 0.5,-1.07 10.27,10.27 0 0 0 0.36,-1.12 c 0.11,-0.4 0.21,-0.82 0.29,-1.23 h 0.18 l -0.05,0.27 c 1.56,0 2.91,0 4.05,0.08 1.14,0.08 2.08,0.1 2.84,0.11 a 10.62,10.62 0 0 0 1.73,-0.06 0.93,0.93 0 0 0 0.76,-0.45 h 0.1 a 4,4 0 0 0 -0.39,0.78 q -0.17,0.39 -0.36,1 c -0.12,0.4 -0.24,0.88 -0.35,1.43 h -0.12 a 1.73,1.73 0 0 0 0,-0.64 0.63,0.63 0 0 0 -0.39,-0.41 3.29,3.29 0 0 0 -1,-0.21 13.56,13.56 0 0 0 -1.84,0 c 0,0.51 0,1.06 -0.07,1.66 -0.07,0.6 0,1.09 0,1.75 0,0.66 0,1.34 0,2.05 0,1.24 0,2.42 0.08,3.54 0.08,1.12 0.12,2.1 0.19,2.95 0.07,0.85 0.18,1.92 0.29,2.78 l 1.1,0.15 v 0.17 h -0.61 -0.69 c -0.27,0 -0.57,0 -0.9,0 -0.33,0 -0.81,0 -1.14,0 h -0.83 -0.68 v -0.1 l 1.17,-0.22 c 0.05,-0.71 0.09,-1.54 0.14,-2.49 0.05,-0.95 0.06,-1.81 0.09,-3 0.03,-1.19 0.01,-2.43 0.01,-3.96 z"
     style="fill:#821917"
     id="path564" />
  <path
     d="m 205.39,283 a 4.44,4.44 0 0 0 -0.91,-0.12 c -0.32,0 -0.62,0 -0.92,0 -0.3,0 -0.56,0.06 -0.82,0.1 l -0.63,0.15 c 0,-0.2 0,-0.44 0.06,-0.71 0.06,-0.27 0,-0.5 0.05,-0.83 0.05,-0.33 0,-0.69 0,-1.08 a 7.56,7.56 0 0 1 -0.56,0.8 5,5 0 0 1 -0.9,0.86 5,5 0 0 1 -1.26,0.68 4.46,4.46 0 0 1 -1.65,0.28 3.5,3.5 0 0 1 -2.23,-0.58 3,3 0 0 1 -1,-1.75 12.25,12.25 0 0 1 -0.22,-2.9 c 0,-1.17 0,-2.52 0,-4.07 0,-1 0,-2 -0.07,-2.9 -0.07,-0.9 -0.1,-1.65 -0.15,-2.31 -0.05,-0.66 -0.13,-1.46 -0.21,-2.08 l -1.05,-0.15 -0.05,-0.19 0.65,0.1 0.73,0.06 c 0.29,0 0.62,0 1,0 0.38,0 0.69,0 1,0 l 0.67,-0.06 0.55,-0.1 v 0.19 l -0.92,0.15 c -0.11,0.89 -0.21,1.8 -0.29,2.73 0,0.39 -0.07,0.81 -0.1,1.24 -0.03,0.43 -0.06,0.88 -0.08,1.33 -0.02,0.45 -0.05,0.89 -0.06,1.33 -0.01,0.44 0,0.86 0,1.27 0,0.62 0,1.23 0,1.82 0,0.59 0,1.16 0.07,1.69 a 7,7 0 0 0 0.28,1.46 3.29,3.29 0 0 0 0.61,1.16 2.66,2.66 0 0 0 1.07,0.77 4.4,4.4 0 0 0 1.66,0.27 3,3 0 0 0 1.12,-0.18 2.21,2.21 0 0 0 0.73,-0.48 2.52,2.52 0 0 0 0.46,-0.66 7.35,7.35 0 0 0 0.32,-0.77 c 0,-1 0.1,-2.08 0.14,-3.28 0.04,-1.2 0.06,-2.36 0.06,-3.51 0,-1.15 0,-2.2 -0.08,-3 -0.08,-0.8 -0.12,-1.42 -0.19,-1.9 a 10.51,10.51 0 0 0 -0.26,-1.3 l -1.27,-0.15 v -0.19 l 0.61,0.1 0.67,0.06 c 0.26,0 0.53,0 0.83,0 0.3,0 0.72,0 1,0 l 0.63,-0.06 a 3.33,3.33 0 0 0 0.44,-0.1 v 0.19 l -0.49,0.15 c -0.1,0.68 -0.19,1.46 -0.25,2.36 -0.06,0.9 -0.13,1.7 -0.18,2.8 -0.05,1.1 -0.08,2.36 -0.08,3.77 0,0.85 0,1.66 0,2.43 0,0.77 0,1.48 0,2.11 a 13.42,13.42 0 0 0 0.14,1.63 2.21,2.21 0 0 0 0.3,1 l 1,0.2 z"
     style="fill:#821917"
     id="path566" />
  <path
     d="m 208.72,272.74 c 0,-0.76 0,-1.51 -0.05,-2.25 -0.05,-0.74 -0.08,-1.4 -0.13,-2 -0.05,-0.6 -0.11,-1.06 -0.17,-1.43 -0.06,-0.37 -0.13,-0.55 -0.2,-0.57 l -0.78,-0.16 v -0.17 l 0.61,0.08 0.64,0.06 c 0.23,0 0.48,0 0.74,0 H 210 l 0.66,-0.06 0.74,-0.06 c 0.27,0 0.57,0 0.91,0 a 6.19,6.19 0 0 1 2.69,0.58 6.25,6.25 0 0 1 2.14,1.65 8,8 0 0 1 1.41,2.57 10.3,10.3 0 0 1 0.51,3.33 14.18,14.18 0 0 1 -0.31,3.1 9.62,9.62 0 0 1 -0.81,2.33 6.17,6.17 0 0 1 -1.18,1.65 7.15,7.15 0 0 1 -1.37,1.05 5.57,5.57 0 0 1 -1.39,0.56 5.74,5.74 0 0 1 -1.3,0.17 c -0.55,0 -1.12,0 -1.71,-0.08 -0.59,-0.08 -1.13,-0.08 -1.64,-0.08 -0.3,0 -0.56,0 -0.8,0 l -0.63,0.07 -0.56,0.1 V 283 l 0.88,-0.12 c 0.1,-0.73 0.17,-1.61 0.24,-2.62 0.07,-1.01 0.12,-1.93 0.17,-3.19 0.05,-1.26 0.07,-2.68 0.07,-4.33 z m 3.84,10.16 a 2.5,2.5 0 0 0 1.39,-0.38 3.54,3.54 0 0 0 1.05,-1 6.93,6.93 0 0 0 0.79,-1.51 14,14 0 0 0 0.52,-1.8 15.79,15.79 0 0 0 0.3,-1.93 c 0.06,-0.65 0.09,-1.27 0.09,-1.87 a 10.65,10.65 0 0 0 -0.37,-2.76 10.8,10.8 0 0 0 -1,-2.53 6.39,6.39 0 0 0 -1.52,-1.85 2.86,2.86 0 0 0 -1.89,-0.73 2.94,2.94 0 0 0 -0.77,0.1 1.15,1.15 0 0 0 -0.55,0.33 c -0.05,0.37 -0.1,0.78 -0.13,1.24 -0.03,0.46 0,0.95 -0.07,1.5 -0.07,0.55 0,1.15 0,1.82 0,0.67 0,1.41 0,2.22 0,0.57 0,1.2 0,1.88 0,0.68 0,1.36 0.06,2.06 0.06,0.7 0.05,1.38 0.09,2 0.04,0.62 0.06,1.3 0.08,1.87 a 1.85,1.85 0 0 0 1.93,1.34 z"
     style="fill:#821917"
     id="path568" />
  <path
     d="m 221,275.13 a 12,12 0 0 1 0.49,-3.51 10.12,10.12 0 0 1 1.3,-2.83 6.65,6.65 0 0 1 1.87,-1.87 4,4 0 0 1 2.17,-0.68 4.7,4.7 0 0 1 2.43,0.65 5.92,5.92 0 0 1 1.86,1.74 8.5,8.5 0 0 1 1.19,2.58 11.42,11.42 0 0 1 0.41,3.15 14.49,14.49 0 0 1 -0.46,3.88 8.76,8.76 0 0 1 -1.26,2.76 5.38,5.38 0 0 1 -1.87,1.65 4.73,4.73 0 0 1 -2.24,0.55 6,6 0 0 1 -2.18,-0.36 4.86,4.86 0 0 1 -1.58,-1 5.21,5.21 0 0 1 -1.06,-1.44 8.55,8.55 0 0 1 -0.66,-1.7 11.06,11.06 0 0 1 -0.32,-1.81 C 221,276.28 221,275.69 221,275.13 Z m 6.13,7.62 a 2.15,2.15 0 0 0 1.59,-0.61 4.19,4.19 0 0 0 1,-1.69 11.63,11.63 0 0 0 0.5,-2.55 31.69,31.69 0 0 0 0.15,-3.2 14.91,14.91 0 0 0 -0.09,-1.52 c -0.07,-0.57 -0.16,-1.15 -0.28,-1.74 a 13.41,13.41 0 0 0 -0.5,-1.75 7.4,7.4 0 0 0 -0.73,-1.52 4.19,4.19 0 0 0 -1,-1.09 2.15,2.15 0 0 0 -1.28,-0.41 1.83,1.83 0 0 0 -1.43,0.68 5.47,5.47 0 0 0 -1,1.8 12.67,12.67 0 0 0 -0.58,2.6 23.34,23.34 0 0 0 -0.19,3.05 c 0,0.41 0,0.89 0.08,1.44 a 15.51,15.51 0 0 0 0.25,1.72 16,16 0 0 0 0.47,1.74 7.06,7.06 0 0 0 0.71,1.54 3.81,3.81 0 0 0 1,1.1 2.22,2.22 0 0 0 1.34,0.41 z"
     style="fill:#821917"
     id="path570" />
  <path
     d="m 235.07,270.87 a 4.26,4.26 0 0 1 0.54,-2.23 4.34,4.34 0 0 1 1.31,-1.41 5.28,5.28 0 0 1 1.68,-0.75 6.71,6.71 0 0 1 1.61,-0.22 4.77,4.77 0 0 1 0.94,0.08 4.11,4.11 0 0 0 0.82,0.07 h 0.45 l 0.33,-0.05 0.26,-0.09 a 6.66,6.66 0 0 0 -0.76,2 6.23,6.23 0 0 0 -0.12,1.88 H 242 a 2.43,2.43 0 0 0 -0.29,-1.18 2.73,2.73 0 0 0 -0.8,-0.89 3.64,3.64 0 0 0 -1.15,-0.57 4.52,4.52 0 0 0 -1.38,-0.21 2,2 0 0 0 -0.58,0.11 1.86,1.86 0 0 0 -0.64,0.33 2.07,2.07 0 0 0 -0.53,0.63 1.91,1.91 0 0 0 -0.22,1 3.11,3.11 0 0 0 0.3,1.38 5,5 0 0 0 0.8,1.15 6.79,6.79 0 0 0 1.13,1 c 0.42,0.31 0.86,0.61 1.3,0.92 0.44,0.31 0.88,0.62 1.31,0.94 a 8.06,8.06 0 0 1 1.13,1 5.1,5.1 0 0 1 0.79,1.22 3.43,3.43 0 0 1 0.31,1.49 4.89,4.89 0 0 1 -0.27,1.7 4.21,4.21 0 0 1 -0.71,1.25 4,4 0 0 1 -1,0.87 5.84,5.84 0 0 1 -1.13,0.54 5.4,5.4 0 0 1 -1.12,0.28 7,7 0 0 1 -1,0.08 c -0.33,0 -0.64,0 -0.9,0 l -0.72,-0.06 -0.59,-0.06 h -0.51 a 1,1 0 0 0 -0.29,0 l -0.29,0.08 a 2.26,2.26 0 0 0 -0.31,0.1 2.33,2.33 0 0 0 0.55,-1 5.38,5.38 0 0 0 0.19,-1.38 7.71,7.71 0 0 0 -0.3,-2.13 h 0.28 a 2.28,2.28 0 0 0 0.39,1.23 4.69,4.69 0 0 0 1,1.13 5.44,5.44 0 0 0 1.43,0.82 4.33,4.33 0 0 0 1.6,0.31 4.81,4.81 0 0 0 0.83,-0.07 2.08,2.08 0 0 0 0.77,-0.31 1.66,1.66 0 0 0 0.57,-0.67 2.76,2.76 0 0 0 0.22,-1.18 2.86,2.86 0 0 0 -0.31,-1.35 4.06,4.06 0 0 0 -0.81,-1.1 7.7,7.7 0 0 0 -1.15,-0.94 c -0.42,-0.3 -0.86,-0.59 -1.31,-0.88 -0.45,-0.29 -0.89,-0.6 -1.31,-0.92 a 7.72,7.72 0 0 1 -1.15,-1 4.68,4.68 0 0 1 -0.81,-1.29 3.92,3.92 0 0 1 -0.25,-1.65 z"
     style="fill:#821917"
     id="path572" />
  <path
     d="m 269.84,283.16 -0.51,-0.09 -0.63,-0.05 q -0.37,0 -0.84,0 -0.47,0 -0.87,0 c -0.25,0 -0.45,0 -0.61,0.05 l -0.49,0.09 V 283 l 0.66,-0.1 q 0,-1.89 0,-4.05 c 0,-1.25 -0.06,-2.68 -0.11,-4.29 -0.05,-1.61 -0.1,-3.33 -0.18,-5.14 -0.13,0.6 -0.29,1.36 -0.5,2.28 -0.21,0.92 -0.48,2 -0.8,3.14 -0.32,1.14 -0.7,2.43 -1.13,3.8 -0.43,1.37 -0.94,2.78 -1.5,4.26 a 16.31,16.31 0 0 1 -0.65,-1.6 c -0.22,-0.63 -0.46,-1.32 -0.7,-2.07 -0.24,-0.75 -0.49,-1.54 -0.73,-2.38 -0.24,-0.84 -0.48,-1.65 -0.71,-2.48 -0.23,-0.83 -0.46,-1.63 -0.69,-2.41 -0.23,-0.78 -0.43,-1.51 -0.63,-2.16 q 0,1 -0.06,2.07 c 0,0.73 0,1.46 0,2.2 0,0.74 0,1.46 0.05,2.18 0.05,0.72 0.05,1.42 0.07,2.07 0.06,1.54 0.14,3.06 0.24,4.58 l 1.05,0.1 v 0.22 l -0.58,-0.1 -0.59,-0.08 a 5.32,5.32 0 0 0 -0.69,0 q -0.47,0 -0.81,0 l -0.58,0.05 -0.48,0.09 V 283 l 0.81,-0.1 a 18.47,18.47 0 0 0 0.41,-2.37 c 0.07,-0.49 0.14,-1.08 0.2,-1.77 0.06,-0.69 0.15,-1.5 0.23,-2.43 0.08,-0.93 0.15,-2 0.23,-3.19 0.08,-1.19 0.17,-2.54 0.26,-4.06 -0.26,-0.74 -0.48,-1.34 -0.66,-1.79 -0.18,-0.45 -0.32,-0.7 -0.43,-0.73 a 2.41,2.41 0 0 1 -0.46,-0.12 h -0.08 v -0.16 a 3.86,3.86 0 0 0 0.49,0.09 h 0.48 0.49 0.56 0.61 l 0.66,-0.09 c 0.07,0.48 0.16,1 0.29,1.69 0.13,0.69 0.29,1.34 0.46,2.07 0.17,0.73 0.36,1.48 0.56,2.25 0.2,0.77 0.39,1.53 0.59,2.26 0.45,1.73 0.95,3.54 1.49,5.41 0.32,-1.22 0.67,-2.51 1,-3.86 0.31,-1.17 0.65,-2.47 1,-3.92 0.35,-1.45 0.74,-2.92 1.1,-4.42 0,-0.26 0,-0.51 0,-0.76 a 5.85,5.85 0 0 0 -0.07,-0.72 0.83,0.83 0 0 0 0.29,0.09 2.87,2.87 0 0 0 0.4,0 h 0.58 0.76 0.58 a 3.89,3.89 0 0 0 0.53,-0.09 v 0.16 l -0.82,0.15 c -0.06,0.55 -0.1,1.21 -0.11,2 -0.01,0.79 0,1.58 0,2.45 0,0.87 0.06,1.77 0.11,2.7 0.05,0.93 0.11,1.83 0.16,2.71 q 0.21,3.11 0.55,6.51 l 0.76,0.15 z"
     style="fill:#821917"
     id="path574" />
  <path
     d="m 273.6,273.46 c 0,-0.92 0,-1.8 -0.12,-2.63 -0.12,-0.83 -0.16,-1.56 -0.25,-2.2 -0.09,-0.64 -0.23,-1.41 -0.36,-2 l -1.08,-0.1 v -0.24 l 1,0.09 c 0.32,0 0.74,0 1.25,0.05 0.51,0.05 1.1,0 1.78,0 0.68,0 1.41,0 2.1,0 0.69,0 1.45,-0.07 2.28,-0.13 a 5.66,5.66 0 0 0 -0.51,1.39 7.62,7.62 0 0 0 -0.26,1.66 3.06,3.06 0 0 0 -0.57,-1.19 3.45,3.45 0 0 0 -1,-0.83 5.08,5.08 0 0 0 -1.23,-0.48 5.7,5.7 0 0 0 -1.37,-0.16 c -0.06,0.7 -0.11,1.46 -0.12,2.27 -0.01,0.81 0,1.58 0,2.29 0,0.71 0,1.65 0.05,2.47 0.5,0 1,-0.05 1.51,-0.11 a 12.81,12.81 0 0 0 1.4,-0.28 6.1,6.1 0 0 0 1.41,-0.52 c -0.05,0.37 -0.09,0.73 -0.11,1.08 -0.02,0.35 0,0.66 0,0.94 0,0.28 0,0.62 0,0.91 l -0.17,-0.07 a 1,1 0 0 0 -0.35,-0.83 2.65,2.65 0 0 0 -1,-0.46 6.53,6.53 0 0 0 -1.32,-0.2 c -0.49,0 -1,0 -1.41,0 0,0.33 0,0.7 0,1.1 0,0.4 0,0.81 0,1.23 0,0.42 0,0.82 0,1.24 0,0.42 0,0.82 0.06,1.21 0,0.9 0.09,1.81 0.13,2.74 a 17,17 0 0 0 2.53,0.07 7.81,7.81 0 0 0 1,-0.09 5.35,5.35 0 0 0 0.89,-0.19 2.61,2.61 0 0 0 0.67,-0.32 0.91,0.91 0 0 0 0.37,-0.5 l 0.05,0.1 c -0.14,0.35 -0.26,0.68 -0.37,1 -0.11,0.32 -0.2,0.54 -0.29,0.82 l -0.21,0.64 c -1,0 -2,0 -2.93,-0.11 -0.93,-0.11 -1.85,-0.1 -2.8,-0.1 a 7.93,7.93 0 0 0 -0.9,0 l -0.64,0.06 c -0.2,0 -0.38,0.07 -0.52,0.11 V 283 l 1,-0.13 c 0.08,-1.22 0.15,-2.41 0.22,-3.56 0,-0.49 0.05,-1 0.08,-1.53 0.03,-0.53 0,-1.05 0.07,-1.56 0.07,-0.51 0,-1 0.05,-1.46 0.05,-0.46 -0.01,-0.92 -0.01,-1.3 z"
     style="fill:#821917"
     id="path576" />
  <path
     d="m 284.16,272.74 c 0,-0.76 0,-1.51 0,-2.25 0,-0.74 -0.08,-1.4 -0.13,-2 -0.05,-0.6 -0.1,-1.06 -0.17,-1.43 -0.07,-0.37 -0.12,-0.55 -0.19,-0.57 l -0.78,-0.16 v -0.17 l 0.61,0.08 0.63,0.06 c 0.24,0 0.48,0 0.74,0 h 0.62 l 0.66,-0.06 0.75,-0.06 c 0.26,0 0.57,0 0.9,0 a 6.15,6.15 0 0 1 4.83,2.23 8,8 0 0 1 1.37,2.59 10.3,10.3 0 0 1 0.51,3.33 14.23,14.23 0 0 1 -0.3,3.1 10.06,10.06 0 0 1 -0.82,2.33 6.17,6.17 0 0 1 -1.18,1.65 6.86,6.86 0 0 1 -1.37,1.05 5.57,5.57 0 0 1 -1.41,0.57 5.73,5.73 0 0 1 -1.29,0.17 c -0.56,0 -1.13,0 -1.72,-0.08 -0.59,-0.08 -1.13,-0.08 -1.64,-0.08 -0.29,0 -0.56,0 -0.8,0 l -0.62,0.07 -0.56,0.1 V 283 l 0.88,-0.12 c 0.09,-0.73 0.17,-1.61 0.24,-2.62 0.07,-1.01 0.11,-1.93 0.17,-3.19 0.06,-1.26 0.07,-2.68 0.07,-4.33 z M 288,282.9 a 2.47,2.47 0 0 0 1.38,-0.38 3.69,3.69 0 0 0 1.06,-1 7.38,7.38 0 0 0 0.78,-1.51 12.53,12.53 0 0 0 0.52,-1.8 15.79,15.79 0 0 0 0.3,-1.93 c 0.06,-0.65 0.09,-1.27 0.09,-1.87 a 10.65,10.65 0 0 0 -0.37,-2.76 10.8,10.8 0 0 0 -1,-2.53 6.53,6.53 0 0 0 -1.51,-1.85 2.86,2.86 0 0 0 -2.66,-0.63 1.1,1.1 0 0 0 -0.55,0.33 c -0.06,0.37 -0.1,0.78 -0.13,1.24 -0.03,0.46 -0.06,0.95 -0.08,1.5 -0.02,0.55 0,1.15 0,1.82 0,0.67 0,1.41 0,2.22 0,0.57 0,1.2 0,1.88 0,0.68 0,1.36 0.06,2.06 0.06,0.7 0,1.38 0.08,2 0.08,0.62 0.06,1.3 0.09,1.87 a 1.85,1.85 0 0 0 1.94,1.34 z"
     style="fill:#821917"
     id="path578" />
  <path
     d="m 297.89,273.43 c 0,-0.87 0,-1.71 -0.09,-2.53 -0.09,-0.82 -0.11,-1.56 -0.16,-2.2 -0.05,-0.64 -0.17,-1.47 -0.26,-2.13 l -0.93,-0.16 v -0.17 a 4.67,4.67 0 0 0 0.61,0.09 l 0.69,0.06 h 0.89 0.94 l 0.67,-0.06 a 3.28,3.28 0 0 0 0.52,-0.09 v 0.17 l -0.86,0.16 c -0.07,0.61 -0.13,1.27 -0.17,2 -0.04,0.73 -0.08,1.32 -0.11,2.12 -0.03,0.8 0,1.65 0,2.54 0,1.14 0,2.28 0.07,3.42 0.07,1.14 0.11,2.18 0.16,3.11 0.05,0.93 0.15,2.12 0.26,3.11 l 0.91,0.17 v 0.16 l -0.62,-0.07 -0.74,-0.06 q -0.44,0 -1,0 -0.56,0 -1,0 l -0.65,0.06 a 3.16,3.16 0 0 0 -0.48,0.07 V 283 l 0.73,-0.11 c 0.11,-0.75 0.21,-1.62 0.3,-2.59 0.09,-0.97 0.15,-1.83 0.22,-3 0.07,-1.17 0.1,-2.43 0.1,-3.87 z"
     style="fill:#821917"
     id="path580" />
  <path
     d="m 304.75,273.46 c 0,-0.92 0,-1.8 -0.11,-2.63 -0.11,-0.83 -0.17,-1.56 -0.26,-2.2 -0.09,-0.64 -0.23,-1.41 -0.35,-2 l -1.09,-0.1 v -0.24 l 1,0.09 c 0.33,0 0.75,0 1.26,0.05 0.51,0.05 1.1,0 1.77,0 0.67,0 1.42,0 2.11,0 0.69,0 1.44,-0.07 2.27,-0.13 a 6.61,6.61 0 0 0 -0.51,1.39 7.59,7.59 0 0 0 -0.25,1.66 3.37,3.37 0 0 0 -0.57,-1.19 3.64,3.64 0 0 0 -1,-0.83 4.77,4.77 0 0 0 -1.23,-0.48 5.68,5.68 0 0 0 -1.36,-0.16 c -0.07,0.7 -0.11,1.46 -0.13,2.27 -0.02,0.81 0,1.58 0,2.29 0,0.71 0,1.65 0.05,2.47 0.5,0 1,-0.05 1.51,-0.11 a 12.36,12.36 0 0 0 1.4,-0.28 6.17,6.17 0 0 0 1.42,-0.52 8.24,8.24 0 0 0 -0.11,1.08 c 0,0.36 0,0.66 0,0.94 a 9,9 0 0 0 0,0.91 l -0.17,-0.07 a 1,1 0 0 0 -0.36,-0.83 2.65,2.65 0 0 0 -1,-0.46 6.32,6.32 0 0 0 -1.32,-0.2 c -0.48,0 -0.95,0 -1.41,0 0,0.33 0,0.7 0,1.1 v 1.23 1.24 c 0,0.42 0,0.82 0,1.21 0,0.9 0.09,1.81 0.13,2.74 a 17,17 0 0 0 2.53,0.07 7.79,7.79 0 0 0 1,-0.09 5.44,5.44 0 0 0 0.88,-0.19 2.86,2.86 0 0 0 0.68,-0.32 0.94,0.94 0 0 0 0.36,-0.5 l 0.05,0.1 c -0.13,0.35 -0.26,0.68 -0.37,1 -0.11,0.32 -0.2,0.54 -0.29,0.82 -0.09,0.28 -0.16,0.49 -0.2,0.64 -1,0 -2,0 -2.93,-0.11 -0.93,-0.11 -1.85,-0.1 -2.8,-0.1 a 8.12,8.12 0 0 0 -0.91,0 l -0.63,0.06 -0.53,0.11 V 283 l 1,-0.13 c 0.08,-1.22 0.16,-2.41 0.22,-3.56 0,-0.49 0.05,-1 0.08,-1.53 0.03,-0.53 0.05,-1.05 0.08,-1.56 0.03,-0.51 0,-1 0.05,-1.46 0.05,-0.46 0.04,-0.92 0.04,-1.3 z"
     style="fill:#821917"
     id="path582" />
  <path
     d="m 313.94,266.4 v -0.16 a 2.87,2.87 0 0 0 0.49,0.09 c 0.16,0 0.36,0 0.61,0 h 0.87 1 0.72 a 4.34,4.34 0 0 0 0.59,-0.09 v 0.16 l -0.8,0.17 a 3.52,3.52 0 0 0 0.05,0.85 c 0,0.4 0.13,0.88 0.23,1.43 0.1,0.55 0.24,1.17 0.39,1.85 0.15,0.68 0.32,1.38 0.49,2.09 0.17,0.71 0.37,1.44 0.56,2.17 0.19,0.73 0.4,1.43 0.59,2.1 0.19,0.67 0.38,1.28 0.56,1.85 0.18,0.57 0.35,1 0.51,1.42 0.19,-0.57 0.39,-1.25 0.61,-2 0.22,-0.75 0.42,-1.64 0.62,-2.53 0.2,-0.89 0.38,-1.79 0.56,-2.72 0.18,-0.93 0.34,-1.8 0.47,-2.63 0.13,-0.83 0.23,-1.57 0.3,-2.24 a 11.73,11.73 0 0 0 0.1,-1.6 l -0.88,-0.17 v -0.16 a 4.1,4.1 0 0 0 0.56,0.09 h 0.57 0.66 0.83 0.58 a 2,2 0 0 0 0.44,-0.09 v 0.16 l -0.54,0.17 c -0.79,2.5 -1.55,4.85 -2.26,7.05 -0.3,0.93 -0.61,1.88 -0.93,2.84 -0.32,0.96 -0.62,1.88 -0.92,2.73 -0.3,0.85 -0.58,1.64 -0.83,2.34 -0.25,0.7 -0.47,1.26 -0.66,1.68 a 15.9,15.9 0 0 1 -0.61,-1.54 q -0.33,-1 -0.72,-2.22 c -0.25,-0.83 -0.51,-1.71 -0.78,-2.65 -0.27,-0.94 -0.55,-1.87 -0.82,-2.79 -0.27,-0.92 -0.53,-1.82 -0.79,-2.68 -0.26,-0.86 -0.49,-1.63 -0.71,-2.31 -0.22,-0.68 -0.41,-1.23 -0.58,-1.67 a 1.75,1.75 0 0 0 -0.43,-0.78 z"
     style="fill:#821917"
     id="path584" />
  <path
     d="m 329.67,266.23 0.68,0.05 h 0.76 2 0.93 l 0.9,-0.05 v 0.1 l -1.12,0.18 c 0.53,3 1.05,5.69 1.56,8.06 0.21,1 0.44,2 0.67,3 0.23,1 0.47,1.84 0.7,2.61 a 17,17 0 0 0 0.66,1.88 c 0.21,0.49 0.41,0.75 0.59,0.78 l 0.31,0.06 0.24,0.06 0.2,0.07 v 0.18 l -0.61,-0.08 -0.66,-0.07 c -0.25,0 -0.52,0 -0.8,0 -0.28,0 -0.65,0 -0.89,0 l -0.6,0.07 -0.44,0.08 V 283 l 0.54,-0.19 -1.47,-6.88 H 330 c 0,0 0,0.13 -0.07,0.46 -0.07,0.33 -0.09,0.74 -0.14,1.23 -0.05,0.49 -0.1,1.05 -0.13,1.64 -0.03,0.59 -0.06,1.15 -0.05,1.67 a 7.61,7.61 0 0 0 0.12,1.31 c 0.07,0.36 0.19,0.55 0.37,0.59 l 0.5,0.1 0.2,0.05 c 0,0 0.05,0 0,0 v 0.18 l -0.66,-0.08 -0.71,-0.07 c -0.26,0 -0.55,0 -0.85,0 -0.3,0 -0.56,0 -0.82,0 l -0.68,0.07 -0.66,0.08 V 283 l 0.83,-0.19 q 1.4,-4.53 2.36,-8.08 c 0.27,-1 0.53,-2 0.77,-3 0.24,-1 0.44,-1.84 0.58,-2.61 a 14.24,14.24 0 0 0 0.24,-1.87 c 0,-0.48 -0.05,-0.73 -0.22,-0.76 l -0.76,-0.06 -0.41,-0.07 h -0.2 z m 0.56,8.39 h 3.32 l -1.81,-6.72 z"
     style="fill:#821917"
     id="path586" />
  <path
     d="m 341.33,273.43 c 0,-0.87 0,-1.71 -0.08,-2.53 -0.08,-0.82 -0.12,-1.56 -0.17,-2.2 -0.05,-0.64 -0.17,-1.47 -0.26,-2.13 l -0.93,-0.16 v -0.17 a 4.67,4.67 0 0 0 0.61,0.09 l 0.69,0.06 h 0.89 0.94 l 0.67,-0.06 a 3.09,3.09 0 0 0 0.52,-0.09 v 0.17 l -0.86,0.16 c -0.07,0.61 -0.13,1.27 -0.17,2 -0.04,0.73 -0.08,1.32 -0.11,2.12 -0.03,0.8 0,1.65 0,2.54 0,1.14 0,2.28 0.07,3.42 0.07,1.14 0.11,2.18 0.16,3.11 0.05,0.93 0.16,2.12 0.26,3.11 l 0.91,0.17 v 0.16 l -0.62,-0.07 -0.74,-0.06 q -0.44,0 -1,0 c -0.37,0 -0.7,0 -1,0 l -0.65,0.06 a 3.37,3.37 0 0 0 -0.48,0.07 V 283 l 0.73,-0.11 c 0.11,-0.75 0.22,-1.62 0.31,-2.59 0.09,-0.97 0.15,-1.83 0.21,-3 0.06,-1.17 0.1,-2.43 0.1,-3.87 z"
     style="fill:#821917"
     id="path588" />
  <path
     d="m 346.77,270.87 a 4.26,4.26 0 0 1 0.54,-2.23 4.34,4.34 0 0 1 1.31,-1.41 5.28,5.28 0 0 1 1.68,-0.75 6.65,6.65 0 0 1 1.61,-0.22 4.77,4.77 0 0 1 0.94,0.08 4.11,4.11 0 0 0 0.82,0.07 h 0.45 l 0.33,-0.05 0.26,-0.09 a 6.41,6.41 0 0 0 -0.76,2 6.61,6.61 0 0 0 -0.13,1.88 h -0.15 a 2.43,2.43 0 0 0 -0.29,-1.18 2.73,2.73 0 0 0 -0.8,-0.89 3.64,3.64 0 0 0 -1.15,-0.57 4.54,4.54 0 0 0 -1.39,-0.21 2.35,2.35 0 0 0 -1.22,0.44 2.19,2.19 0 0 0 -0.52,0.63 1.91,1.91 0 0 0 -0.22,1 3.11,3.11 0 0 0 0.3,1.38 5,5 0 0 0 0.8,1.15 6.79,6.79 0 0 0 1.13,1 c 0.42,0.31 0.86,0.61 1.3,0.92 0.44,0.31 0.88,0.62 1.31,0.94 a 7.46,7.46 0 0 1 1.12,1 4.85,4.85 0 0 1 0.8,1.22 3.43,3.43 0 0 1 0.31,1.49 4.89,4.89 0 0 1 -0.27,1.7 4.21,4.21 0 0 1 -0.71,1.25 4,4 0 0 1 -1,0.87 5.84,5.84 0 0 1 -1.13,0.54 5.4,5.4 0 0 1 -1.12,0.28 7.14,7.14 0 0 1 -0.95,0.08 q -0.51,0 -0.9,0 l -0.72,-0.06 -0.59,-0.06 h -0.52 a 1,1 0 0 0 -0.28,0 l -0.29,0.08 a 2.26,2.26 0 0 0 -0.31,0.1 2.33,2.33 0 0 0 0.55,-1 5.38,5.38 0 0 0 0.19,-1.38 7.71,7.71 0 0 0 -0.3,-2.13 h 0.27 a 2.22,2.22 0 0 0 0.4,1.23 4.69,4.69 0 0 0 1,1.13 5.44,5.44 0 0 0 1.43,0.82 4.33,4.33 0 0 0 1.6,0.31 4.73,4.73 0 0 0 0.83,-0.07 2.08,2.08 0 0 0 0.77,-0.31 1.66,1.66 0 0 0 0.57,-0.67 2.76,2.76 0 0 0 0.22,-1.18 3,3 0 0 0 -0.31,-1.35 4.06,4.06 0 0 0 -0.81,-1.1 7.7,7.7 0 0 0 -1.15,-0.94 c -0.42,-0.3 -0.86,-0.59 -1.31,-0.88 -0.45,-0.29 -0.89,-0.6 -1.31,-0.92 a 7.72,7.72 0 0 1 -1.15,-1 4.68,4.68 0 0 1 -0.81,-1.29 4.09,4.09 0 0 1 -0.27,-1.65 z"
     style="fill:#821917"
     id="path590" />
  <path
     d="m 236.89,302.62 c 0,-0.88 0,-1.72 -0.1,-2.5 -0.1,-0.78 -0.15,-1.47 -0.23,-2.06 -0.08,-0.59 -0.2,-1.32 -0.32,-1.9 l -1,-0.14 v -0.16 l 0.93,0.06 c 0.62,0 1.57,0.05 2.86,0.05 0.64,0 1.29,0 1.94,-0.05 l 2.13,-0.12 a 10.08,10.08 0 0 0 -0.45,1.32 7.44,7.44 0 0 0 -0.23,1.56 2.73,2.73 0 0 0 -0.53,-1.14 3.15,3.15 0 0 0 -0.89,-0.78 4.07,4.07 0 0 0 -1.14,-0.46 6.12,6.12 0 0 0 -1.28,-0.14 c -0.08,0.67 -0.14,1.38 -0.16,2.15 -0.02,0.77 0,1.48 0,2.16 0,0.68 0,1.58 0.06,2.36 a 13.38,13.38 0 0 0 1.41,-0.11 9.69,9.69 0 0 0 1.32,-0.27 6.18,6.18 0 0 0 1.33,-0.54 9.33,9.33 0 0 0 -0.11,1 c 0,0.32 0,0.62 0,0.88 0,0.26 0,0.59 0,0.86 l -0.15,-0.05 a 0.9,0.9 0 0 0 -0.34,-0.78 2.35,2.35 0 0 0 -0.91,-0.45 5.68,5.68 0 0 0 -1.23,-0.18 c -0.46,0 -0.9,0 -1.32,0 0,0.32 0,0.68 0,1.09 0,0.41 0,0.83 0,1.28 0,0.45 0,0.89 0,1.35 0,0.46 0,0.91 0.05,1.34 0,1 0.09,2.06 0.16,3.15 l 1.07,0.14 v 0.11 h -0.55 a 6.38,6.38 0 0 0 -0.71,-0.05 h -1 c -0.3,0 -0.58,0 -0.82,0 l -0.6,0.05 -0.49,0.08 v -0.21 l 0.93,-0.09 c 0.08,-1.14 0.14,-2.25 0.19,-3.34 0,-0.47 0,-0.95 0.07,-1.44 0.07,-0.49 0.05,-1 0.08,-1.45 0.03,-0.45 0,-0.93 0,-1.37 0,-0.44 0.03,-0.83 0.03,-1.21 z"
     style="fill:#821917"
     id="path592" />
  <path
     d="m 247.66,304.27 a 12.82,12.82 0 0 1 0.47,-3.62 8.31,8.31 0 0 1 1.26,-2.64 5.29,5.29 0 0 1 1.83,-1.62 4.63,4.63 0 0 1 2.17,-0.55 l 1.48,0.1 a 2.27,2.27 0 0 0 0.57,-0.05 0.22,0.22 0 0 0 0.12,-0.05 h 0.08 c -0.08,0.23 -0.16,0.45 -0.23,0.68 a 6.8,6.8 0 0 0 -0.21,0.72 c -0.06,0.25 -0.12,0.53 -0.16,0.82 -0.04,0.29 -0.07,0.63 -0.09,1 h -0.18 a 2.56,2.56 0 0 0 -0.14,-0.73 2.8,2.8 0 0 0 -0.46,-0.82 2.6,2.6 0 0 0 -0.86,-0.68 2.86,2.86 0 0 0 -1.31,-0.27 2,2 0 0 0 -1.92,1.57 13.39,13.39 0 0 0 -0.6,4.57 c 0,0.54 0,1.11 0.1,1.71 a 15.67,15.67 0 0 0 0.32,1.77 11,11 0 0 0 0.54,1.68 6.75,6.75 0 0 0 0.77,1.41 3.67,3.67 0 0 0 1,1 2.24,2.24 0 0 0 1.26,0.37 2.39,2.39 0 0 0 1,-0.17 2,2 0 0 0 0.6,-0.39 1.57,1.57 0 0 0 0.36,-0.57 l 0.17,0.18 a 3.14,3.14 0 0 1 -0.74,1 4.43,4.43 0 0 1 -1,0.68 3.62,3.62 0 0 1 -1.6,0.31 4.09,4.09 0 0 1 -0.93,-0.12 3.73,3.73 0 0 1 -1,-0.45 4.79,4.79 0 0 1 -1,-0.87 5.34,5.34 0 0 1 -0.83,-1.36 10.34,10.34 0 0 1 -0.57,-2 14.52,14.52 0 0 1 -0.27,-2.61 z"
     style="fill:#821917"
     id="path594" />
  <path
     d="m 260.6,300.17 a 4,4 0 0 1 0.5,-2.08 4,4 0 0 1 1.23,-1.33 4.79,4.79 0 0 1 1.57,-0.69 6.26,6.26 0 0 1 1.5,-0.21 4.28,4.28 0 0 1 0.88,0.07 3.61,3.61 0 0 0 0.77,0.07 h 0.42 l 0.31,-0.05 a 1,1 0 0 0 0.23,-0.08 6.42,6.42 0 0 0 -0.7,1.87 6.11,6.11 0 0 0 -0.12,1.76 h -0.14 a 2.18,2.18 0 0 0 -0.28,-1.11 2.45,2.45 0 0 0 -0.74,-0.83 3.4,3.4 0 0 0 -1.03,-0.56 4.24,4.24 0 0 0 -1.29,-0.19 2,2 0 0 0 -0.54,0.09 1.94,1.94 0 0 0 -0.6,0.32 1.87,1.87 0 0 0 -0.49,0.58 1.83,1.83 0 0 0 -0.21,0.91 2.91,2.91 0 0 0 0.29,1.29 4.72,4.72 0 0 0 0.74,1.08 7.21,7.21 0 0 0 1.05,0.92 l 1.22,0.86 c 0.42,0.28 0.83,0.58 1.22,0.88 a 7.06,7.06 0 0 1 1.06,1 5,5 0 0 1 0.74,1.14 3.3,3.3 0 0 1 0.29,1.4 4.47,4.47 0 0 1 -0.26,1.58 4.38,4.38 0 0 1 -0.65,1.17 3.7,3.7 0 0 1 -0.92,0.81 5.53,5.53 0 0 1 -2.1,0.77 6.18,6.18 0 0 1 -0.89,0.07 h -0.85 l -0.67,-0.06 -0.55,-0.06 h -0.48 a 0.93,0.93 0 0 0 -0.27,0 l -0.27,0.07 a 1.83,1.83 0 0 0 -0.28,0.1 2.16,2.16 0 0 0 0.5,-0.91 4.64,4.64 0 0 0 0.19,-1.29 7.71,7.71 0 0 0 -0.28,-2 h 0.25 a 2.05,2.05 0 0 0 0.37,1.14 4.29,4.29 0 0 0 0.95,1.06 5.34,5.34 0 0 0 1.34,0.76 4,4 0 0 0 1.49,0.3 5.26,5.26 0 0 0 0.78,-0.07 2.06,2.06 0 0 0 0.72,-0.29 1.55,1.55 0 0 0 0.53,-0.62 2.5,2.5 0 0 0 0.21,-1.11 2.72,2.72 0 0 0 -0.29,-1.26 3.76,3.76 0 0 0 -0.76,-1 7.84,7.84 0 0 0 -1.07,-0.88 c -0.39,-0.28 -0.8,-0.55 -1.23,-0.82 -0.43,-0.27 -0.83,-0.56 -1.22,-0.86 a 6.7,6.7 0 0 1 -1.07,-1 4.34,4.34 0 0 1 -0.76,-1.21 3.75,3.75 0 0 1 -0.34,-1.5 z"
     style="fill:#821917"
     id="path596" />
  <path
     d="m 274.45,303 c 0,-0.84 0,-1.66 -0.09,-2.48 -0.09,-0.82 -0.13,-1.56 -0.2,-2.21 -0.07,-0.65 -0.17,-1.49 -0.27,-2.19 l -0.78,-0.14 v -0.16 a 3.93,3.93 0 0 0 0.46,0.08 l 0.54,0.06 h 0.7 0.95 l 0.74,-0.06 0.67,-0.08 V 296 l -1,0.14 a 11.31,11.31 0 0 0 -0.11,1.19 c 0,0.47 0,1.14 -0.06,2 -0.06,0.86 0,2 0,3.42 h 5.48 c 0,-1.12 0,-2.09 0,-2.92 0,-0.83 -0.07,-1.51 -0.11,-2.06 -0.04,-0.55 -0.1,-1.19 -0.16,-1.63 L 280.34,296 v -0.16 l 0.55,0.08 0.64,0.06 h 0.82 0.78 l 0.65,-0.06 0.62,-0.08 V 296 l -1,0.14 c -0.07,0.6 -0.12,1.28 -0.16,2 -0.04,0.72 -0.08,1.41 -0.11,2.3 -0.03,0.89 -0.05,1.87 -0.05,2.94 0,1.48 0,2.72 0.06,3.73 0.06,1.01 0.09,1.83 0.15,2.47 a 17.33,17.33 0 0 0 0.22,1.8 l 0.76,0.1 v 0.15 l -0.51,-0.07 c -0.17,0 -0.37,0 -0.59,-0.06 -0.22,-0.06 -0.49,0 -0.79,0 -0.3,0 -0.61,0 -0.85,0 -0.24,0 -0.46,0 -0.64,0.06 l -0.52,0.07 v -0.15 l 0.73,-0.1 c 0.08,-0.63 0.16,-1.34 0.22,-2.12 0.06,-0.78 0.11,-1.46 0.16,-2.39 0.05,-0.93 0.08,-1.94 0.08,-3.06 H 276 c 0,1.09 0,2.09 0,3 0,0.91 0,1.72 0.06,2.4 0.06,0.68 0.07,1.51 0.11,2.15 l 1,0.1 v 0.15 l -0.6,-0.07 c -0.19,0 -0.42,0 -0.68,-0.06 -0.26,-0.06 -0.53,0 -0.83,0 -0.3,0 -0.58,0 -0.83,0 -0.25,0 -0.46,0 -0.64,0.06 l -0.57,0.07 v -0.09 l 1,-0.16 c 0.09,-0.64 0.16,-1.39 0.22,-2.23 0.06,-0.84 0.11,-1.61 0.15,-2.64 0.04,-1.03 0.06,-2.13 0.06,-3.49 z"
     style="fill:#821917"
     id="path598" />
  <path
     d="m 171.78,296.13 a 13.69,13.69 0 0 0 -0.21,1.67 c 0,0.67 -0.1,1.41 -0.14,2.21 -0.04,0.8 -0.08,1.64 -0.1,2.51 -0.02,0.87 0,1.73 0,2.57 q 0,3 0,6.33 -1.25,-1.67 -2.43,-3.39 c -0.79,-1.14 -1.53,-2.26 -2.24,-3.34 -0.71,-1.08 -1.37,-2.11 -2,-3.07 l -1.65,-2.56 c 0,0.64 0.06,1.38 0.11,2.22 0.05,0.84 0.11,1.68 0.16,2.56 0.05,0.88 0.13,1.73 0.2,2.59 0.07,0.86 0.15,1.63 0.23,2.33 0.08,0.7 0.16,1.29 0.25,1.77 a 3.35,3.35 0 0 0 0.23,0.89 l 1,0.15 v 0.11 l -0.61,-0.07 c -0.2,0 -0.42,0 -0.67,-0.06 -0.25,-0.06 -0.53,0 -0.82,0 -0.29,0 -0.64,0 -0.89,0 -0.25,0 -0.47,0 -0.65,0.06 l -0.52,0.07 v -0.15 l 0.82,-0.11 a 2.89,2.89 0 0 0 0.25,-1 c 0.06,-0.53 0.12,-1.17 0.17,-1.93 0.05,-0.76 0.08,-1.6 0.11,-2.53 0.03,-0.93 0,-1.85 0,-2.79 0,-0.94 0,-1.83 0,-2.71 0,-0.88 0,-1.65 0,-2.31 -0.4,-0.58 -0.73,-1 -1,-1.36 -0.27,-0.36 -0.44,-0.5 -0.55,-0.5 h -0.35 l -0.06,-0.14 q 0.56,0 1.11,-0.06 l 1,-0.09 a 6.27,6.27 0 0 0 1,-0.17 14.46,14.46 0 0 0 0.7,1.5 c 0.3,0.57 0.64,1.16 1,1.79 0.36,0.63 0.75,1.27 1.16,1.93 l 1.22,1.93 c 0.94,1.46 2,3 3,4.56 0,-1.72 0,-3.34 -0.12,-4.85 0,-0.64 -0.06,-1.29 -0.11,-1.95 -0.05,-0.66 -0.09,-1.27 -0.15,-1.86 -0.06,-0.59 -0.13,-1.11 -0.21,-1.59 a 6.89,6.89 0 0 0 -0.29,-1.14 l -1.22,-0.16 v -0.16 l 0.63,0.08 0.65,0.06 h 0.76 0.85 l 0.72,-0.06 0.68,-0.08 v 0.16 z"
     style="fill:#821917"
     id="path600" />
  <path
     d="m 177.43,304.14 a 11.09,11.09 0 0 1 0.46,-3.27 9.47,9.47 0 0 1 1.22,-2.64 6.17,6.17 0 0 1 1.74,-1.75 3.73,3.73 0 0 1 2,-0.64 4.41,4.41 0 0 1 2.27,0.61 5.5,5.5 0 0 1 1.74,1.63 7.64,7.64 0 0 1 1.11,2.41 10.77,10.77 0 0 1 0.39,2.94 13.41,13.41 0 0 1 -0.43,3.62 8.11,8.11 0 0 1 -1.19,2.58 5.14,5.14 0 0 1 -1.74,1.54 4.52,4.52 0 0 1 -2.1,0.51 5.52,5.52 0 0 1 -2,-0.34 4.46,4.46 0 0 1 -1.47,-0.91 5,5 0 0 1 -1,-1.34 8.28,8.28 0 0 1 -0.61,-1.59 9.76,9.76 0 0 1 -0.3,-1.7 c -0.06,-0.58 -0.09,-1.13 -0.09,-1.66 z m 5.73,7.13 a 2,2 0 0 0 1.49,-0.57 3.9,3.9 0 0 0 0.93,-1.58 10.75,10.75 0 0 0 0.48,-2.38 c 0.08,-0.92 0.13,-1.91 0.13,-3 a 12.86,12.86 0 0 0 -0.09,-1.42 16.2,16.2 0 0 0 -0.26,-1.63 13.15,13.15 0 0 0 -0.46,-1.63 6.78,6.78 0 0 0 -0.69,-1.43 3.91,3.91 0 0 0 -0.92,-1 2,2 0 0 0 -1.19,-0.39 1.73,1.73 0 0 0 -1.34,0.63 4.93,4.93 0 0 0 -0.93,1.69 11.18,11.18 0 0 0 -0.55,2.43 22,22 0 0 0 -0.17,2.85 c 0,0.38 0,0.83 0.07,1.35 a 13.4,13.4 0 0 0 0.23,1.6 13.55,13.55 0 0 0 0.44,1.63 6.83,6.83 0 0 0 0.66,1.44 3.61,3.61 0 0 0 0.94,1 2.11,2.11 0 0 0 1.23,0.41 z"
     style="fill:#821917"
     id="path602" />
  <path
     d="m 193,296 v -0.15 a 2.29,2.29 0 0 0 0.45,0.08 4,4 0 0 0 0.58,0.05 h 0.8 1 a 5.77,5.77 0 0 0 0.67,-0.05 3.81,3.81 0 0 0 0.55,-0.08 V 296 l -0.74,0.16 a 3.5,3.5 0 0 0 0,0.8 c 0.05,0.37 0.12,0.82 0.22,1.33 0.1,0.51 0.22,1.1 0.36,1.73 0.14,0.63 0.3,1.29 0.46,2 0.16,0.71 0.34,1.34 0.53,2 0.19,0.66 0.36,1.34 0.54,2 0.18,0.66 0.36,1.2 0.53,1.73 a 14,14 0 0 0 0.47,1.33 c 0.18,-0.53 0.37,-1.17 0.57,-1.91 0.2,-0.74 0.39,-1.53 0.58,-2.36 0.19,-0.83 0.36,-1.68 0.53,-2.54 0.17,-0.86 0.31,-1.69 0.44,-2.46 0.13,-0.77 0.21,-1.47 0.28,-2.1 a 11.47,11.47 0 0 0 0.09,-1.49 l -0.83,-0.16 v -0.15 a 4,4 0 0 0 0.53,0.08 3.83,3.83 0 0 0 0.53,0.05 h 0.62 0.78 a 3.83,3.83 0 0 0 0.54,-0.05 1.86,1.86 0 0 0 0.41,-0.08 V 296 l -0.51,0.16 q -1.11,3.51 -2.1,6.59 L 201,305.4 c -0.29,0.89 -0.58,1.74 -0.86,2.55 l -0.77,2.18 c -0.24,0.66 -0.45,1.18 -0.61,1.57 -0.17,-0.35 -0.36,-0.83 -0.58,-1.44 -0.22,-0.61 -0.43,-1.3 -0.67,-2.08 -0.24,-0.78 -0.48,-1.59 -0.73,-2.47 -0.25,-0.88 -0.51,-1.74 -0.76,-2.61 -0.25,-0.87 -0.5,-1.7 -0.74,-2.5 -0.24,-0.8 -0.46,-1.52 -0.67,-2.16 -0.21,-0.64 -0.38,-1.15 -0.54,-1.57 a 1.73,1.73 0 0 0 -0.4,-0.72 z"
     style="fill:#821917"
     id="path604" />
  <path
     d="m 210.46,295.83 0.63,0.05 h 0.71 1.91 0.87 l 0.83,-0.05 v 0.09 l -1,0.18 q 0.74,4.22 1.46,7.52 0.3,1.42 0.63,2.79 c 0.22,0.91 0.44,1.72 0.65,2.44 a 15,15 0 0 0 0.62,1.76 c 0.2,0.45 0.38,0.69 0.55,0.73 l 0.29,0.05 0.22,0.06 0.19,0.06 v 0.17 l -0.57,-0.07 -0.62,-0.07 c -0.23,0 -0.48,0 -0.74,0 -0.26,0 -0.61,0 -0.83,0 a 5.53,5.53 0 0 0 -0.57,0.07 l -0.41,0.07 v -0.17 l 0.51,-0.17 -1.38,-6.44 h -3.56 a 3.67,3.67 0 0 0 -0.07,0.43 c 0,0.31 -0.09,0.69 -0.13,1.16 -0.04,0.47 -0.09,1 -0.13,1.53 -0.04,0.53 0,1.07 0,1.56 a 8.12,8.12 0 0 0 0.11,1.23 c 0.07,0.33 0.18,0.51 0.35,0.54 l 0.46,0.1 h 0.19 c 0,0 0,0 0,0 v 0.17 l -0.62,-0.07 -0.66,-0.07 c -0.25,0 -0.51,0 -0.8,0 -0.29,0 -0.52,0 -0.76,0 -0.24,0 -0.45,0 -0.63,0.07 l -0.62,0.07 v -0.17 l 0.78,-0.17 c 0.86,-2.82 1.6,-5.34 2.2,-7.56 q 0.38,-1.42 0.72,-2.79 c 0.22,-0.9 0.4,-1.72 0.54,-2.44 a 13.64,13.64 0 0 0 0.23,-1.75 c 0,-0.45 0,-0.68 -0.21,-0.7 L 211,296 l -0.38,-0.07 -0.19,-0.05 z m 0.52,7.84 h 3.11 l -1.7,-6.27 z"
     style="fill:#821917"
     id="path606" />
  <path
     d="m 302.63,295.61 q -0.23,3.88 -0.4,8.22 -0.09,2.3 0,8.88 h -1 q 0.23,-4.5 0.34,-10 0,-1.8 -0.13,-7.17 z"
     style="fill:#821917"
     id="path608" />
  <path
     d="m 321.42,302.62 c 0,-0.88 0,-1.72 -0.11,-2.5 -0.11,-0.78 -0.14,-1.47 -0.23,-2.06 -0.09,-0.59 -0.2,-1.32 -0.31,-1.9 l -1,-0.14 v -0.16 l 0.93,0.06 c 0.61,0 1.56,0.05 2.85,0.05 0.65,0 1.29,0 2,-0.05 l 2.12,-0.12 a 10.17,10.17 0 0 0 -0.44,1.32 6.85,6.85 0 0 0 -0.24,1.56 2.71,2.71 0 0 0 -0.52,-1.14 3.06,3.06 0 0 0 -0.9,-0.78 3.84,3.84 0 0 0 -1.14,-0.46 6,6 0 0 0 -1.27,-0.14 20.05,20.05 0 0 0 -0.16,2.15 c 0,0.76 0,1.48 0,2.16 0,0.68 0,1.58 0.07,2.36 a 13.81,13.81 0 0 0 1.41,-0.11 9.28,9.28 0 0 0 1.31,-0.27 5.79,5.79 0 0 0 1.33,-0.54 c 0,0.35 -0.08,0.69 -0.1,1 -0.02,0.31 0,0.62 0,0.88 0,0.26 0,0.59 0,0.86 l -0.14,-0.05 a 0.9,0.9 0 0 0 -0.34,-0.78 2.35,2.35 0 0 0 -0.91,-0.45 5.69,5.69 0 0 0 -1.24,-0.18 c -0.45,0 -0.89,0 -1.31,0 0,0.32 0,0.68 0,1.09 0,0.41 0,0.83 0,1.28 v 1.35 c 0,0.46 0,0.91 0,1.34 0.05,1 0.1,2.06 0.16,3.15 l 1.08,0.14 v 0.11 h -0.55 a 6.38,6.38 0 0 0 -0.71,-0.05 h -1 c -0.3,0 -0.58,0 -0.82,0 -0.24,0 -0.45,0 -0.6,0.05 l -0.5,0.08 v -0.21 l 0.94,-0.09 c 0.07,-1.14 0.14,-2.25 0.19,-3.34 0,-0.47 0,-0.95 0.07,-1.44 0.07,-0.49 0.05,-1 0.07,-1.45 0.02,-0.45 0,-0.93 0,-1.37 0,-0.44 0.01,-0.83 0.01,-1.21 z"
     style="fill:#821917"
     id="path610" />
  <path
     d="m 332.19,304.27 a 12.83,12.83 0 0 1 0.46,-3.62 8.31,8.31 0 0 1 1.26,-2.64 5.47,5.47 0 0 1 1.83,-1.62 4.67,4.67 0 0 1 2.18,-0.55 l 1.47,0.1 a 2.16,2.16 0 0 0 0.57,-0.05 0.22,0.22 0 0 0 0.13,-0.05 h 0.08 c -0.09,0.23 -0.16,0.45 -0.24,0.68 -0.08,0.23 -0.14,0.47 -0.2,0.72 a 6.27,6.27 0 0 0 -0.16,0.82 c 0,0.3 -0.08,0.63 -0.1,1 h -0.17 a 2.56,2.56 0 0 0 -0.14,-0.73 2.8,2.8 0 0 0 -0.46,-0.82 2.6,2.6 0 0 0 -0.86,-0.68 2.91,2.91 0 0 0 -1.31,-0.27 2,2 0 0 0 -1.92,1.57 13.39,13.39 0 0 0 -0.6,4.57 14.74,14.74 0 0 0 0.1,1.71 13.71,13.71 0 0 0 0.32,1.77 11,11 0 0 0 0.54,1.68 6.73,6.73 0 0 0 0.76,1.41 3.85,3.85 0 0 0 1,1 2.22,2.22 0 0 0 1.26,0.37 2.39,2.39 0 0 0 1,-0.17 1.89,1.89 0 0 0 0.59,-0.39 1.6,1.6 0 0 0 0.37,-0.57 l 0.17,0.18 a 3.29,3.29 0 0 1 -0.74,1 4.3,4.3 0 0 1 -1.06,0.68 3.61,3.61 0 0 1 -1.59,0.31 4,4 0 0 1 -0.93,-0.12 3.6,3.6 0 0 1 -1,-0.45 4.83,4.83 0 0 1 -1,-0.87 5.33,5.33 0 0 1 -0.82,-1.36 9,9 0 0 1 -0.57,-2 14.52,14.52 0 0 1 -0.22,-2.61 z"
     style="fill:#821917"
     id="path612" />
  <path
     d="m 349,302.5 c 0,-0.78 0,-1.48 0,-2.08 0,-0.6 -0.06,-1.11 -0.09,-1.52 -0.03,-0.41 -0.08,-0.91 -0.13,-1.27 -0.66,0 -1.21,0 -1.63,0 a 3.64,3.64 0 0 0 -1,0.15 1.54,1.54 0 0 0 -0.68,0.4 3.47,3.47 0 0 0 -0.51,0.8 h -0.1 a 5.81,5.81 0 0 0 0.48,-1 8.8,8.8 0 0 0 0.33,-1 11.48,11.48 0 0 0 0.27,-1.16 l 0.17,0.05 v 0.25 c 1.45,0 2.71,0 3.78,0.08 1.07,0.08 1.94,0.09 2.65,0.1 a 9.26,9.26 0 0 0 1.62,-0.06 0.85,0.85 0 0 0 0.71,-0.42 l 0.09,0.05 a 4.51,4.51 0 0 0 -0.36,0.73 7.2,7.2 0 0 0 -0.33,0.92 c -0.12,0.38 -0.23,0.83 -0.34,1.34 h -0.11 a 1.48,1.48 0 0 0 0,-0.59 0.61,0.61 0 0 0 -0.37,-0.39 3.11,3.11 0 0 0 -0.93,-0.2 15.68,15.68 0 0 0 -1.72,0 q 0,0.72 -0.06,1.56 c 0,0.47 0,1 0,1.63 0,0.63 0,1.25 0,1.92 0,1.16 0,2.26 0.08,3.31 0.08,1.05 0.11,2 0.17,2.75 0.06,0.75 0.17,1.8 0.27,2.6 l 1,0.14 0.05,0.16 -0.57,-0.05 h -0.65 -2.09 -0.78 l -0.63,0.05 v -0.09 l 1.09,-0.21 c 0,-0.67 0.09,-1.44 0.13,-2.33 0.04,-0.89 0.06,-1.69 0.09,-2.79 0.03,-1.1 0.1,-2.41 0.1,-3.83 z"
     style="fill:#821917"
     id="path614" />
</svg>
